<?xml version="1.0" standalone="no"?>
<!DOCTYPE svg PUBLIC "-//W3C//DTD SVG 1.1//EN" "http://www.w3.org/Graphics/SVG/1.1/DTD/svg11.dtd" >
<svg xmlns="http://www.w3.org/2000/svg" xmlns:xlink="http://www.w3.org/1999/xlink" version="1.1">
<metadata></metadata>
<defs>
<font id="mullerthin_demo" horiz-adv-x="763" >
<font-face units-per-em="2048" ascent="1597" descent="-451" />
<missing-glyph horiz-adv-x="546" />
<glyph horiz-adv-x="0" />
<glyph horiz-adv-x="682" />
<glyph unicode=" "  horiz-adv-x="546" />
<glyph unicode="&#x09;" horiz-adv-x="546" />
<glyph unicode="&#xa0;" horiz-adv-x="546" />
<glyph unicode="!" horiz-adv-x="397" d="M154 33q0 20 13 32.5t32 12.5q45 0 45 -45t-45 -45q-18 0 -31.5 12t-13.5 33zM174 1434h51l-4 -1088h-45z" />
<glyph unicode="&#x22;" d="M145 0v1434h476v-1434h-476zM252 1176q0 -53 37 -90t96 -37q47 0 88 30.5t41 96.5t-42 95t-89 32q-47 0 -89 -30.5t-42 -96.5zM258 158h248v98q0 66 -39 95.5t-86 27.5q-47 0 -85 -28.5t-38 -94.5v-98zM258 451h248v184h-43v-137h-57v133h-44v-133h-57v137h-47v-184z M258 715h248v45h-178l108 80v8l-108 84h178v45h-248v-53l109 -80l-109 -76v-53zM297 1176q0 45 28.5 63t59.5 18q31 -4 57.5 -20t26.5 -61t-26.5 -63.5t-57.5 -18.5q-37 -2 -63.5 19.5t-24.5 62.5zM303 203v53q-2 41 23.5 57.5t54.5 20.5q29 0 55.5 -17.5t26.5 -60.5v-53 h-160z" />
<glyph unicode="#" d="M145 0v1434h476v-1434h-476zM252 1176q0 -53 37 -90t96 -37q47 0 88 30.5t41 96.5t-42 95t-89 32q-47 0 -89 -30.5t-42 -96.5zM258 158h248v98q0 66 -39 95.5t-86 27.5q-47 0 -85 -28.5t-38 -94.5v-98zM258 451h248v184h-43v-137h-57v133h-44v-133h-57v137h-47v-184z M258 715h248v45h-178l108 80v8l-108 84h178v45h-248v-53l109 -80l-109 -76v-53zM297 1176q0 45 28.5 63t59.5 18q31 -4 57.5 -20t26.5 -61t-26.5 -63.5t-57.5 -18.5q-37 -2 -63.5 19.5t-24.5 62.5zM303 203v53q-2 41 23.5 57.5t54.5 20.5q29 0 55.5 -17.5t26.5 -60.5v-53 h-160z" />
<glyph unicode="$" d="M145 0v1434h476v-1434h-476zM252 1176q0 -53 37 -90t96 -37q47 0 88 30.5t41 96.5t-42 95t-89 32q-47 0 -89 -30.5t-42 -96.5zM258 158h248v98q0 66 -39 95.5t-86 27.5q-47 0 -85 -28.5t-38 -94.5v-98zM258 451h248v184h-43v-137h-57v133h-44v-133h-57v137h-47v-184z M258 715h248v45h-178l108 80v8l-108 84h178v45h-248v-53l109 -80l-109 -76v-53zM297 1176q0 45 28.5 63t59.5 18q31 -4 57.5 -20t26.5 -61t-26.5 -63.5t-57.5 -18.5q-37 -2 -63.5 19.5t-24.5 62.5zM303 203v53q-2 41 23.5 57.5t54.5 20.5q29 0 55.5 -17.5t26.5 -60.5v-53 h-160z" />
<glyph unicode="%" d="M145 0v1434h476v-1434h-476zM252 1176q0 -53 37 -90t96 -37q47 0 88 30.5t41 96.5t-42 95t-89 32q-47 0 -89 -30.5t-42 -96.5zM258 158h248v98q0 66 -39 95.5t-86 27.5q-47 0 -85 -28.5t-38 -94.5v-98zM258 451h248v184h-43v-137h-57v133h-44v-133h-57v137h-47v-184z M258 715h248v45h-178l108 80v8l-108 84h178v45h-248v-53l109 -80l-109 -76v-53zM297 1176q0 45 28.5 63t59.5 18q31 -4 57.5 -20t26.5 -61t-26.5 -63.5t-57.5 -18.5q-37 -2 -63.5 19.5t-24.5 62.5zM303 203v53q-2 41 23.5 57.5t54.5 20.5q29 0 55.5 -17.5t26.5 -60.5v-53 h-160z" />
<glyph unicode="&#x26;" d="M145 0v1434h476v-1434h-476zM252 1176q0 -53 37 -90t96 -37q47 0 88 30.5t41 96.5t-42 95t-89 32q-47 0 -89 -30.5t-42 -96.5zM258 158h248v98q0 66 -39 95.5t-86 27.5q-47 0 -85 -28.5t-38 -94.5v-98zM258 451h248v184h-43v-137h-57v133h-44v-133h-57v137h-47v-184z M258 715h248v45h-178l108 80v8l-108 84h178v45h-248v-53l109 -80l-109 -76v-53zM297 1176q0 45 28.5 63t59.5 18q31 -4 57.5 -20t26.5 -61t-26.5 -63.5t-57.5 -18.5q-37 -2 -63.5 19.5t-24.5 62.5zM303 203v53q-2 41 23.5 57.5t54.5 20.5q29 0 55.5 -17.5t26.5 -60.5v-53 h-160z" />
<glyph unicode="'" d="M145 0v1434h476v-1434h-476zM252 1176q0 -53 37 -90t96 -37q47 0 88 30.5t41 96.5t-42 95t-89 32q-47 0 -89 -30.5t-42 -96.5zM258 158h248v98q0 66 -39 95.5t-86 27.5q-47 0 -85 -28.5t-38 -94.5v-98zM258 451h248v184h-43v-137h-57v133h-44v-133h-57v137h-47v-184z M258 715h248v45h-178l108 80v8l-108 84h178v45h-248v-53l109 -80l-109 -76v-53zM297 1176q0 45 28.5 63t59.5 18q31 -4 57.5 -20t26.5 -61t-26.5 -63.5t-57.5 -18.5q-37 -2 -63.5 19.5t-24.5 62.5zM303 203v53q-2 41 23.5 57.5t54.5 20.5q29 0 55.5 -17.5t26.5 -60.5v-53 h-160z" />
<glyph unicode="(" horiz-adv-x="503" d="M104 717q0 123 21.5 249t61.5 246.5t96.5 232t126.5 210.5h51q-70 -96 -125 -209t-95 -233.5t-61.5 -246.5t-21.5 -249t21.5 -249t61.5 -247t95 -233.5t125 -208.5h-51q-70 98 -126.5 209.5t-96.5 232.5t-61.5 247t-21.5 249z" />
<glyph unicode=")" horiz-adv-x="503" d="M43 -221q70 96 126 208.5t95 233.5t60.5 247t21.5 249t-21.5 249t-60.5 246.5t-95 233.5t-126 209h51q70 -98 126 -210t96 -232.5t61.5 -246.5t21.5 -249t-21.5 -248t-61.5 -246t-96 -233.5t-126 -210.5h-51z" />
<glyph unicode="*" d="M145 0v1434h476v-1434h-476zM252 1176q0 -53 37 -90t96 -37q47 0 88 30.5t41 96.5t-42 95t-89 32q-47 0 -89 -30.5t-42 -96.5zM258 158h248v98q0 66 -39 95.5t-86 27.5q-47 0 -85 -28.5t-38 -94.5v-98zM258 451h248v184h-43v-137h-57v133h-44v-133h-57v137h-47v-184z M258 715h248v45h-178l108 80v8l-108 84h178v45h-248v-53l109 -80l-109 -76v-53zM297 1176q0 45 28.5 63t59.5 18q31 -4 57.5 -20t26.5 -61t-26.5 -63.5t-57.5 -18.5q-37 -2 -63.5 19.5t-24.5 62.5zM303 203v53q-2 41 23.5 57.5t54.5 20.5q29 0 55.5 -17.5t26.5 -60.5v-53 h-160z" />
<glyph unicode="+" d="M145 0v1434h476v-1434h-476zM252 1176q0 -53 37 -90t96 -37q47 0 88 30.5t41 96.5t-42 95t-89 32q-47 0 -89 -30.5t-42 -96.5zM258 158h248v98q0 66 -39 95.5t-86 27.5q-47 0 -85 -28.5t-38 -94.5v-98zM258 451h248v184h-43v-137h-57v133h-44v-133h-57v137h-47v-184z M258 715h248v45h-178l108 80v8l-108 84h178v45h-248v-53l109 -80l-109 -76v-53zM297 1176q0 45 28.5 63t59.5 18q31 -4 57.5 -20t26.5 -61t-26.5 -63.5t-57.5 -18.5q-37 -2 -63.5 19.5t-24.5 62.5zM303 203v53q-2 41 23.5 57.5t54.5 20.5q29 0 55.5 -17.5t26.5 -60.5v-53 h-160z" />
<glyph unicode="," horiz-adv-x="348" d="M66 -291l102 438h51l-110 -438h-43z" />
<glyph unicode="-" horiz-adv-x="993" d="M145 473v47h703v-47h-703z" />
<glyph unicode="." horiz-adv-x="346" d="M127 33q0 20 14.5 32.5t32.5 12.5t31.5 -12.5t13.5 -32.5t-13 -32.5t-32 -12.5q-18 0 -32.5 12t-14.5 33z" />
<glyph unicode="/" d="M145 0v1434h476v-1434h-476zM252 1176q0 -53 37 -90t96 -37q47 0 88 30.5t41 96.5t-42 95t-89 32q-47 0 -89 -30.5t-42 -96.5zM258 158h248v98q0 66 -39 95.5t-86 27.5q-47 0 -85 -28.5t-38 -94.5v-98zM258 451h248v184h-43v-137h-57v133h-44v-133h-57v137h-47v-184z M258 715h248v45h-178l108 80v8l-108 84h178v45h-248v-53l109 -80l-109 -76v-53zM297 1176q0 45 28.5 63t59.5 18q31 -4 57.5 -20t26.5 -61t-26.5 -63.5t-57.5 -18.5q-37 -2 -63.5 19.5t-24.5 62.5zM303 203v53q-2 41 23.5 57.5t54.5 20.5q29 0 55.5 -17.5t26.5 -60.5v-53 h-160z" />
<glyph unicode="0" horiz-adv-x="1437" d="M121 696q0 158 37 289t110.5 226.5t186 148.5t264.5 53t264.5 -53t186 -148.5t110.5 -226.5t37 -289t-37 -289t-110.5 -226t-186.5 -148t-264 -53q-152 0 -264.5 53t-186 148t-110.5 226t-37 289zM172 696q0 -150 34 -272.5t101.5 -210.5t170 -136t241.5 -48t241.5 48 t170 136t101.5 210.5t34 272.5t-34 273t-101.5 211t-170 136t-241.5 48t-241.5 -48t-170 -136t-101.5 -211t-34 -273z" />
<glyph unicode="1" horiz-adv-x="821" d="M113 0v49h321v1286l-321 -121v50l338 129h32v-1344h293v-49h-663z" />
<glyph unicode="2" horiz-adv-x="1142" d="M100 0v33q0 127 42 218t109.5 159.5t152.5 122t171 102.5q74 43 143.5 87t124 95t86.5 113.5t32 144.5q0 68 -29 121t-81 91t-125 58.5t-161 20.5q-106 0 -207.5 -30.5t-205.5 -98.5v51q102 70 206.5 97.5t208.5 27.5q98 0 179 -23.5t139.5 -66.5t91.5 -105.5t33 -142.5 q0 -90 -34 -158.5t-91.5 -125t-130 -103.5t-150.5 -92q-84 -49 -164 -97t-143.5 -110.5t-102 -144.5t-40.5 -195h874v-49h-928z" />
<glyph unicode="3" horiz-adv-x="1202" d="M131 70v49q94 -43 210 -67.5t273 -24.5q92 0 169 22.5t133.5 65.5t87 106.5t30.5 145.5q0 88 -34.5 150.5t-93 102t-136.5 58t-164 18.5h-200v49h196q98 0 169 26t116 68t66.5 95t21.5 110q0 66 -26.5 124.5t-77 102.5t-125 69.5t-168.5 25.5q-127 0 -225.5 -23.5 t-196.5 -68.5v49q92 45 192.5 67.5t235.5 22.5q104 0 185 -29.5t138.5 -80t87 -116.5t29.5 -140q0 -53 -16.5 -105.5t-50 -95.5t-87 -75t-125.5 -46q68 -12 129.5 -39t107.5 -70t73.5 -105t27.5 -144q0 -94 -34.5 -166t-97 -121t-148.5 -74.5t-187 -25.5q-162 0 -279.5 23.5 t-205.5 66.5z" />
<glyph unicode="4" horiz-adv-x="1302" d="M57 348v45l822 1000h55v-996h299v-49h-299v-348h-51v348h-826zM125 397h758v924z" />
<glyph unicode="5" horiz-adv-x="1173" d="M129 74v49q92 -47 207 -71.5t233 -24.5q104 0 188.5 26.5t141.5 73.5t88 114.5t31 149.5q0 96 -38 164t-102.5 111t-150.5 63.5t-180 20.5q-96 0 -193.5 -17.5t-189.5 -50.5l45 711h788v-50h-741l-39 -600q170 53 342 54q100 0 192.5 -22.5t163 -72t112.5 -126t42 -185.5 q0 -92 -34 -168t-98.5 -130t-156.5 -83.5t-207 -29.5q-123 0 -239.5 24.5t-204.5 69.5z" />
<glyph unicode="6" horiz-adv-x="1234" d="M123 653q0 203 44 347.5t124 236.5t192.5 134t247.5 42q80 0 155 -19.5t138 -54.5v-49q-66 37 -140.5 55.5t-152.5 18.5q-125 0 -227.5 -39t-176 -124t-113.5 -221t-40 -329v-47q104 111 235.5 173.5t274.5 62.5q88 0 171 -26t146.5 -79t101.5 -133t38 -188 q0 -104 -37 -185.5t-100.5 -136.5t-148.5 -83.5t-181 -28.5q-137 0 -240.5 47t-172 135t-103.5 213t-35 278zM178 547q23 -246 145.5 -383t346.5 -137q88 0 164.5 24.5t133 73.5t89.5 120.5t33 166.5q0 98 -34 169.5t-91.5 117.5t-132 69t-156.5 23q-139 0 -270.5 -63.5 t-227.5 -180.5z" />
<glyph unicode="7" horiz-adv-x="1052" d="M78 1343v50h938v-41l-660 -1352h-53l653 1343h-878z" />
<glyph unicode="8" horiz-adv-x="1312" d="M119 371q0 129 72.5 237.5t209.5 169.5q-102 45 -166.5 115.5t-64.5 185.5q0 63 27.5 123t87 107t151.5 75.5t219 28.5q119 0 210 -30.5t152.5 -82t94.5 -115t33 -126.5q0 -129 -65.5 -230.5t-178.5 -160.5q61 -23 115.5 -52.5t94.5 -69.5t62.5 -92.5t22.5 -119.5 q0 -68 -33 -131.5t-99.5 -113.5t-167.5 -79.5t-237 -29.5q-135 0 -236 30.5t-169 83.5t-101.5 125t-33.5 152zM168 375q0 -74 29.5 -137.5t91 -110.5t154 -73.5t214.5 -26.5q121 0 212.5 25.5t151.5 67.5t91 97t31 115q0 88 -41 146.5t-109.5 97t-156 65t-179.5 51.5 q-53 16 -107 30.5t-104 35.5q-133 -53 -205.5 -156.5t-72.5 -226.5zM219 1079q0 -86 42 -142t106.5 -93t141.5 -60.5t144 -42.5q49 -14 100.5 -27.5t98.5 -27.5q111 55 176.5 149.5t65.5 217.5q0 57 -29 112.5t-84 100.5t-137 72.5t-191 27.5q-113 0 -194.5 -24.5 t-135 -64.5t-79 -91t-25.5 -107z" />
<glyph unicode="9" horiz-adv-x="1234" d="M94 979q0 104 37 185t99.5 136.5t147.5 84t183 28.5q137 0 239.5 -47t172 -135t104.5 -213t35 -279q0 -203 -44 -347t-124 -236.5t-192.5 -134t-247.5 -41.5q-82 0 -157 19t-138 54v49q66 -37 141.5 -55t151.5 -18q125 0 228.5 38.5t177 123.5t113.5 220.5t40 329.5v47 q-104 -111 -236.5 -173t-273.5 -62q-88 0 -171 25.5t-146.5 79t-101.5 133t-38 188.5zM145 981q0 -98 34 -170t91.5 -118t132 -68.5t156.5 -22.5q139 0 270.5 63.5t227.5 180.5q-23 246 -147 383t-347 137q-88 0 -163.5 -24.5t-132 -73.5t-89.5 -121t-33 -166z" />
<glyph unicode=":" d="M145 0v1434h476v-1434h-476zM252 1176q0 -53 37 -90t96 -37q47 0 88 30.5t41 96.5t-42 95t-89 32q-47 0 -89 -30.5t-42 -96.5zM258 158h248v98q0 66 -39 95.5t-86 27.5q-47 0 -85 -28.5t-38 -94.5v-98zM258 451h248v184h-43v-137h-57v133h-44v-133h-57v137h-47v-184z M258 715h248v45h-178l108 80v8l-108 84h178v45h-248v-53l109 -80l-109 -76v-53zM297 1176q0 45 28.5 63t59.5 18q31 -4 57.5 -20t26.5 -61t-26.5 -63.5t-57.5 -18.5q-37 -2 -63.5 19.5t-24.5 62.5zM303 203v53q-2 41 23.5 57.5t54.5 20.5q29 0 55.5 -17.5t26.5 -60.5v-53 h-160z" />
<glyph unicode=";" d="M145 0v1434h476v-1434h-476zM252 1176q0 -53 37 -90t96 -37q47 0 88 30.5t41 96.5t-42 95t-89 32q-47 0 -89 -30.5t-42 -96.5zM258 158h248v98q0 66 -39 95.5t-86 27.5q-47 0 -85 -28.5t-38 -94.5v-98zM258 451h248v184h-43v-137h-57v133h-44v-133h-57v137h-47v-184z M258 715h248v45h-178l108 80v8l-108 84h178v45h-248v-53l109 -80l-109 -76v-53zM297 1176q0 45 28.5 63t59.5 18q31 -4 57.5 -20t26.5 -61t-26.5 -63.5t-57.5 -18.5q-37 -2 -63.5 19.5t-24.5 62.5zM303 203v53q-2 41 23.5 57.5t54.5 20.5q29 0 55.5 -17.5t26.5 -60.5v-53 h-160z" />
<glyph unicode="&#x3c;" d="M145 0v1434h476v-1434h-476zM252 1176q0 -53 37 -90t96 -37q47 0 88 30.5t41 96.5t-42 95t-89 32q-47 0 -89 -30.5t-42 -96.5zM258 158h248v98q0 66 -39 95.5t-86 27.5q-47 0 -85 -28.5t-38 -94.5v-98zM258 451h248v184h-43v-137h-57v133h-44v-133h-57v137h-47v-184z M258 715h248v45h-178l108 80v8l-108 84h178v45h-248v-53l109 -80l-109 -76v-53zM297 1176q0 45 28.5 63t59.5 18q31 -4 57.5 -20t26.5 -61t-26.5 -63.5t-57.5 -18.5q-37 -2 -63.5 19.5t-24.5 62.5zM303 203v53q-2 41 23.5 57.5t54.5 20.5q29 0 55.5 -17.5t26.5 -60.5v-53 h-160z" />
<glyph unicode="=" d="M145 0v1434h476v-1434h-476zM252 1176q0 -53 37 -90t96 -37q47 0 88 30.5t41 96.5t-42 95t-89 32q-47 0 -89 -30.5t-42 -96.5zM258 158h248v98q0 66 -39 95.5t-86 27.5q-47 0 -85 -28.5t-38 -94.5v-98zM258 451h248v184h-43v-137h-57v133h-44v-133h-57v137h-47v-184z M258 715h248v45h-178l108 80v8l-108 84h178v45h-248v-53l109 -80l-109 -76v-53zM297 1176q0 45 28.5 63t59.5 18q31 -4 57.5 -20t26.5 -61t-26.5 -63.5t-57.5 -18.5q-37 -2 -63.5 19.5t-24.5 62.5zM303 203v53q-2 41 23.5 57.5t54.5 20.5q29 0 55.5 -17.5t26.5 -60.5v-53 h-160z" />
<glyph unicode="&#x3e;" d="M145 0v1434h476v-1434h-476zM252 1176q0 -53 37 -90t96 -37q47 0 88 30.5t41 96.5t-42 95t-89 32q-47 0 -89 -30.5t-42 -96.5zM258 158h248v98q0 66 -39 95.5t-86 27.5q-47 0 -85 -28.5t-38 -94.5v-98zM258 451h248v184h-43v-137h-57v133h-44v-133h-57v137h-47v-184z M258 715h248v45h-178l108 80v8l-108 84h178v45h-248v-53l109 -80l-109 -76v-53zM297 1176q0 45 28.5 63t59.5 18q31 -4 57.5 -20t26.5 -61t-26.5 -63.5t-57.5 -18.5q-37 -2 -63.5 19.5t-24.5 62.5zM303 203v53q-2 41 23.5 57.5t54.5 20.5q29 0 55.5 -17.5t26.5 -60.5v-53 h-160z" />
<glyph unicode="?" horiz-adv-x="999" d="M80 1290v49q76 49 176 82t217 33q98 0 179 -22.5t138.5 -64.5t89 -103.5t31.5 -137.5q0 -74 -30.5 -140t-75.5 -127.5t-98.5 -119t-98.5 -115t-75.5 -118t-30.5 -123.5h-49q0 70 29.5 131t75.5 120.5t98.5 116t98.5 116t75.5 123t29.5 134.5q0 133 -105.5 207t-285.5 74 q-113 0 -211 -33t-178 -82zM430 33q0 20 14.5 32.5t32.5 12.5t31.5 -12.5t13.5 -32.5t-13 -32.5t-32 -12.5q-18 0 -32.5 12t-14.5 33z" />
<glyph unicode="@" d="M145 0v1434h476v-1434h-476zM252 1176q0 -53 37 -90t96 -37q47 0 88 30.5t41 96.5t-42 95t-89 32q-47 0 -89 -30.5t-42 -96.5zM258 158h248v98q0 66 -39 95.5t-86 27.5q-47 0 -85 -28.5t-38 -94.5v-98zM258 451h248v184h-43v-137h-57v133h-44v-133h-57v137h-47v-184z M258 715h248v45h-178l108 80v8l-108 84h178v45h-248v-53l109 -80l-109 -76v-53zM297 1176q0 45 28.5 63t59.5 18q31 -4 57.5 -20t26.5 -61t-26.5 -63.5t-57.5 -18.5q-37 -2 -63.5 19.5t-24.5 62.5zM303 203v53q-2 41 23.5 57.5t54.5 20.5q29 0 55.5 -17.5t26.5 -60.5v-53 h-160z" />
<glyph unicode="A" horiz-adv-x="1441" d="M33 0l659 1434h60l657 -1434h-55l-203 440h-860l-203 -440h-55zM313 489h820l-396 863q-4 10 -7 17t-7 15q-4 -8 -7 -15t-7 -17z" />
<glyph unicode="B" horiz-adv-x="1380" d="M215 0v1434h516q104 0 192.5 -20.5t152 -64.5t99 -112t35.5 -162q0 -72 -24.5 -127t-64.5 -95t-91 -65.5t-106 -33.5q53 -10 113.5 -32t111.5 -65t85 -109.5t34 -162.5q0 -127 -54.5 -204t-136.5 -116.5t-179 -52t-183 -12.5h-500zM266 49h443q82 0 172 10.5t164.5 45 t123 102t48.5 182.5q0 109 -47.5 175.5t-114 102t-141 48t-132.5 12.5h-516v-678zM266 776h537q68 0 132 19.5t113.5 57.5t80 92t30.5 126q0 84 -30.5 143.5t-88 97.5t-136.5 55t-175 17h-463v-608z" />
<glyph unicode="C" horiz-adv-x="1347" d="M109 698q0 188 64.5 329.5t168.5 237t236.5 142.5t265.5 47q109 0 212 -24.5t189 -73.5v-51q-82 47 -184.5 73.5t-210.5 26.5q-127 0 -250 -44t-221 -132t-158.5 -220t-60.5 -311q0 -172 61.5 -298t159.5 -208.5t222 -122.5t251 -40q236 0 410 102v-51 q-172 -100 -418 -100q-133 0 -265 43t-236.5 132t-170 224t-65.5 319z" />
<glyph unicode="D" horiz-adv-x="1495" d="M215 0v1434h408q193 0 336 -54.5t238 -149.5t141 -227.5t46 -285.5q0 -154 -46 -286t-141 -227t-238.5 -149.5t-335.5 -54.5h-408zM266 49h357q180 0 314 49t222 138.5t131 212.5t43 268t-43 268t-131 212t-222 138t-314 49h-357v-1335z" />
<glyph unicode="E" horiz-adv-x="1286" d="M215 0v1434h932v-50h-881v-639h819v-49h-819v-647h899v-49h-950z" />
<glyph unicode="F" horiz-adv-x="1212" d="M215 0v1434h934v-50h-883v-653h824v-49h-824v-682h-51z" />
<glyph unicode="G" horiz-adv-x="1454" d="M111 717q0 195 65.5 334t172 229t241.5 132t274 42q111 0 217.5 -23.5t196.5 -70.5v-51q-86 47 -194.5 71.5t-215.5 24.5q-131 0 -258 -39t-226 -122t-160.5 -213t-61.5 -314t62.5 -315.5t163.5 -214.5t230.5 -120.5t262.5 -37.5q104 0 202.5 20.5t182.5 61.5v637h51 v-672q-98 -47 -210 -71.5t-228 -24.5q-143 0 -281.5 40.5t-246 130t-174 229.5t-66.5 337z" />
<glyph unicode="H" horiz-adv-x="1570" d="M215 0v1434h51v-689h1039v689h51v-1434h-51v696h-1039v-696h-51z" />
<glyph unicode="I" horiz-adv-x="481" d="M215 0v1434h51v-1434h-51z" />
<glyph unicode="J" horiz-adv-x="1069" d="M68 68v51q72 -47 164 -68.5t196 -21.5q86 0 157.5 20.5t124 63.5t81 108.5t28.5 155.5v1007h-473v50h524v-1057q0 -102 -32.5 -177t-91 -124t-138.5 -72.5t-174 -23.5q-109 0 -203 21.5t-163 66.5z" />
<glyph unicode="K" horiz-adv-x="1339" d="M215 0v1434h51v-674h443l503 674h60l-520 -699l577 -735h-61l-561 711h-441v-711h-51z" />
<glyph unicode="L" horiz-adv-x="1179" d="M215 0v1434h51v-1385h877v-49h-928z" />
<glyph unicode="M" horiz-adv-x="1837" d="M215 0v1434h39l664 -969l665 969h39v-1434h-51v1331l-637 -930h-31l-637 930v-1331h-51z" />
<glyph unicode="N" horiz-adv-x="1570" d="M215 0v1434h43l1047 -1344v123v1221h51v-1434h-45l-1045 1346v-123v-1223h-51z" />
<glyph unicode="O" horiz-adv-x="1691" d="M106 717q0 133 46.5 265t138.5 236.5t230 170t325 65.5q186 0 324.5 -65.5t230.5 -170t138 -236.5t46 -265t-46 -265.5t-138 -236.5t-230.5 -169.5t-324.5 -65.5t-324.5 65.5t-230.5 169.5t-138.5 236.5t-46.5 265.5zM158 717q0 -125 43 -248t129 -221t215 -158.5 t301 -60.5t301 60.5t215 158.5t129 221t43 248t-43 247.5t-129 221t-215 159t-301 60.5t-301 -60.5t-215 -159t-129 -221t-43 -247.5z" />
<glyph unicode="P" horiz-adv-x="1333" d="M215 0v1434h444q119 0 227.5 -20.5t190.5 -72t131 -137.5t49 -215q0 -131 -49 -217t-131 -136t-190.5 -70.5t-227.5 -20.5h-393v-545h-51zM266 594h396q111 0 209 18.5t172.5 62.5t118.5 120.5t44 193.5t-44 194t-117.5 121t-173 62t-209.5 18h-396v-790z" />
<glyph unicode="Q" horiz-adv-x="1691" d="M106 717q0 133 46.5 265t138.5 236.5t230 170t325 65.5q186 0 324.5 -65.5t230.5 -170t138 -236.5t46 -265q0 -154 -58.5 -301.5t-180.5 -257.5l243 -244l-33 -33l-247 246q-88 -68 -203 -107.5t-260 -39.5q-186 0 -324.5 65.5t-230.5 169.5t-138.5 236.5t-46.5 265.5z M158 717q0 -125 43 -248t129 -221t215 -158.5t301 -60.5q133 0 239.5 35.5t188.5 99.5l-332 332l33 32l334 -333q115 100 170 239t55 283q0 125 -43 247.5t-129 221t-215 159t-301 60.5t-301 -60.5t-215 -159t-129 -221t-43 -247.5z" />
<glyph unicode="R" horiz-adv-x="1396" d="M215 0v1434h539q88 0 178 -21.5t161.5 -71t117.5 -129t46 -194.5q0 -109 -39.5 -185.5t-105 -126t-147.5 -74t-166 -28.5l549 -604h-64l-545 602h-473v-602h-51zM266 651h490q80 0 159.5 18.5t144 61.5t105.5 112.5t41 174.5q0 102 -41 173t-105.5 114t-144 61t-159.5 18 h-490v-733z" />
<glyph unicode="S" horiz-adv-x="1153" d="M106 98v52q104 -59 231.5 -90t252.5 -31q86 0 165 15t137 50t93 91.5t35 138.5q0 88 -39 149.5t-101.5 103t-143.5 72.5t-166 58.5t-165.5 58.5t-143 76t-101.5 108.5t-39 157.5q0 90 38 155.5t101.5 107.5t143 62.5t163.5 20.5q111 0 218.5 -25.5t187.5 -70.5v-51 q-79 47 -189 73q-102 25 -200 25h-15q-76 0 -147.5 -16.5t-126.5 -52.5t-89 -92t-34 -136q0 -113 66.5 -179.5t167 -110.5t216 -77.5t216 -83t167 -126t66.5 -205.5q0 -94 -40 -161t-105.5 -108t-151.5 -59t-180 -18q-133 0 -260 31.5t-228 86.5z" />
<glyph unicode="T" horiz-adv-x="1214" d="M31 1384v50h1153v-50h-551v-1384h-51v1384h-551z" />
<glyph unicode="U" horiz-adv-x="1533" d="M197 494v940h51v-938q0 -131 39 -220.5t108.5 -144.5t164.5 -78.5t208 -23.5q111 0 206 23.5t164.5 78.5t108.5 144.5t39 220.5v938h51v-940q0 -143 -44 -241.5t-120.5 -159t-181 -87t-223.5 -26.5q-121 0 -224.5 26.5t-181 87t-121.5 158.5t-44 242z" />
<glyph unicode="V" horiz-adv-x="1386" d="M41 1434h55l598 -1377l598 1377h54l-627 -1434h-51z" />
<glyph unicode="W" horiz-adv-x="2021" d="M57 1434h56l430 -1364l444 1347h47l443 -1347l430 1364h57l-459 -1434h-55l-440 1333l-439 -1333h-55z" />
<glyph unicode="X" horiz-adv-x="1241" d="M23 0l567 737l-537 697h62l506 -658l507 658h60l-537 -697l568 -737h-60l-538 696l-537 -696h-61z" />
<glyph unicode="Y" horiz-adv-x="1280" d="M49 1434h57l533 -803l532 803h58l-563 -852v-582h-52v582z" />
<glyph unicode="Z" horiz-adv-x="1165" d="M49 0v45l975 1339h-934v50h1000v-45l-977 -1340h991v-49h-1055z" />
<glyph unicode="[" d="M145 0v1434h476v-1434h-476zM252 1176q0 -53 37 -90t96 -37q47 0 88 30.5t41 96.5t-42 95t-89 32q-47 0 -89 -30.5t-42 -96.5zM258 158h248v98q0 66 -39 95.5t-86 27.5q-47 0 -85 -28.5t-38 -94.5v-98zM258 451h248v184h-43v-137h-57v133h-44v-133h-57v137h-47v-184z M258 715h248v45h-178l108 80v8l-108 84h178v45h-248v-53l109 -80l-109 -76v-53zM297 1176q0 45 28.5 63t59.5 18q31 -4 57.5 -20t26.5 -61t-26.5 -63.5t-57.5 -18.5q-37 -2 -63.5 19.5t-24.5 62.5zM303 203v53q-2 41 23.5 57.5t54.5 20.5q29 0 55.5 -17.5t26.5 -60.5v-53 h-160z" />
<glyph unicode="\" d="M145 0v1434h476v-1434h-476zM252 1176q0 -53 37 -90t96 -37q47 0 88 30.5t41 96.5t-42 95t-89 32q-47 0 -89 -30.5t-42 -96.5zM258 158h248v98q0 66 -39 95.5t-86 27.5q-47 0 -85 -28.5t-38 -94.5v-98zM258 451h248v184h-43v-137h-57v133h-44v-133h-57v137h-47v-184z M258 715h248v45h-178l108 80v8l-108 84h178v45h-248v-53l109 -80l-109 -76v-53zM297 1176q0 45 28.5 63t59.5 18q31 -4 57.5 -20t26.5 -61t-26.5 -63.5t-57.5 -18.5q-37 -2 -63.5 19.5t-24.5 62.5zM303 203v53q-2 41 23.5 57.5t54.5 20.5q29 0 55.5 -17.5t26.5 -60.5v-53 h-160z" />
<glyph unicode="]" d="M145 0v1434h476v-1434h-476zM252 1176q0 -53 37 -90t96 -37q47 0 88 30.5t41 96.5t-42 95t-89 32q-47 0 -89 -30.5t-42 -96.5zM258 158h248v98q0 66 -39 95.5t-86 27.5q-47 0 -85 -28.5t-38 -94.5v-98zM258 451h248v184h-43v-137h-57v133h-44v-133h-57v137h-47v-184z M258 715h248v45h-178l108 80v8l-108 84h178v45h-248v-53l109 -80l-109 -76v-53zM297 1176q0 45 28.5 63t59.5 18q31 -4 57.5 -20t26.5 -61t-26.5 -63.5t-57.5 -18.5q-37 -2 -63.5 19.5t-24.5 62.5zM303 203v53q-2 41 23.5 57.5t54.5 20.5q29 0 55.5 -17.5t26.5 -60.5v-53 h-160z" />
<glyph unicode="^" d="M145 0v1434h476v-1434h-476zM252 1176q0 -53 37 -90t96 -37q47 0 88 30.5t41 96.5t-42 95t-89 32q-47 0 -89 -30.5t-42 -96.5zM258 158h248v98q0 66 -39 95.5t-86 27.5q-47 0 -85 -28.5t-38 -94.5v-98zM258 451h248v184h-43v-137h-57v133h-44v-133h-57v137h-47v-184z M258 715h248v45h-178l108 80v8l-108 84h178v45h-248v-53l109 -80l-109 -76v-53zM297 1176q0 45 28.5 63t59.5 18q31 -4 57.5 -20t26.5 -61t-26.5 -63.5t-57.5 -18.5q-37 -2 -63.5 19.5t-24.5 62.5zM303 203v53q-2 41 23.5 57.5t54.5 20.5q29 0 55.5 -17.5t26.5 -60.5v-53 h-160z" />
<glyph unicode="_" d="M145 0v1434h476v-1434h-476zM252 1176q0 -53 37 -90t96 -37q47 0 88 30.5t41 96.5t-42 95t-89 32q-47 0 -89 -30.5t-42 -96.5zM258 158h248v98q0 66 -39 95.5t-86 27.5q-47 0 -85 -28.5t-38 -94.5v-98zM258 451h248v184h-43v-137h-57v133h-44v-133h-57v137h-47v-184z M258 715h248v45h-178l108 80v8l-108 84h178v45h-248v-53l109 -80l-109 -76v-53zM297 1176q0 45 28.5 63t59.5 18q31 -4 57.5 -20t26.5 -61t-26.5 -63.5t-57.5 -18.5q-37 -2 -63.5 19.5t-24.5 62.5zM303 203v53q-2 41 23.5 57.5t54.5 20.5q29 0 55.5 -17.5t26.5 -60.5v-53 h-160z" />
<glyph unicode="`" horiz-adv-x="337" d="M-305 1532v338h1024v-338h-1024zM-188 1610h63q47 0 71.5 24.5t24.5 65.5q0 37 -24.5 63.5t-71.5 26.5h-63v-180zM-158 1640v117h33q31 0 47.5 -16.5t16.5 -40.5q0 -59 -64 -60h-33zM23 1610h127v30h-95v43h95v33h-95v41h95v33h-127v-180zM201 1610h35v135l61 -80l63 82 v-137h33v180h-43l-53 -74l-53 74h-43v-180zM444 1704q0 -39 22.5 -67.5t70.5 -28.5q49 0 72.5 28.5t23.5 67.5q0 45 -27.5 70.5t-68.5 25.5q-39 0 -66 -27.5t-27 -68.5zM475 1704q0 25 15.5 45t46.5 20q33 0 48 -20t15 -45q0 -27 -14.5 -46.5t-48.5 -19.5q-31 0 -46.5 21.5 t-15.5 44.5z" />
<glyph unicode="a" horiz-adv-x="1103" d="M82 260q0 86 37 144.5t96 95.5t135 53t154 16q96 0 185 -16t171 -45v106q0 156 -89 250t-265 94q-111 0 -200 -19t-148 -42v49q57 20 145 39t205 19q197 0 299 -105.5t102 -288.5v-467q0 -57 32 -78.5t75 -21.5q41 0 76 14v-43q-43 -16 -86 -16q-27 0 -53.5 7t-47 24.5 t-33 44t-12.5 67.5v74q-72 -115 -190.5 -175t-253.5 -60q-61 0 -122 16t-108 51t-75.5 88t-28.5 125zM131 262q0 -61 24.5 -106t66.5 -75t94.5 -44t107.5 -14q66 0 129 16t120.5 49t105.5 81t81 112v182q-78 29 -168 45t-184 16q-72 0 -139.5 -13t-119.5 -44t-85 -81 t-33 -124z" />
<glyph unicode="b" horiz-adv-x="1255" d="M172 0v1434h49v-703q29 57 73 106.5t101.5 86.5t126 58.5t146.5 21.5q104 0 193 -36t154.5 -102.5t102.5 -161t37 -212.5q0 -119 -37 -213.5t-102.5 -161t-154.5 -102t-193 -35.5q-78 0 -146.5 21.5t-126 58t-102.5 87t-76 109.5v-256h-45zM221 342q23 -66 65 -124 t99 -101t128 -67.5t151 -24.5q94 0 176 31.5t140 92t92 147.5t34 196q0 111 -34 196.5t-93 146t-140 92t-175 31.5q-80 0 -151 -24.5t-128 -67.5t-99 -101t-65 -124v-299z" />
<glyph unicode="c" horiz-adv-x="1009" d="M100 483q0 137 46.5 235.5t122 162t169.5 93.5t191 30q72 0 147.5 -18.5t138.5 -61.5v-47q-59 41 -134.5 61t-147.5 20q-90 0 -176 -27.5t-155 -85t-110.5 -147.5t-41.5 -215q0 -117 38.5 -203.5t103 -143t146.5 -84t170 -27.5q84 0 166 19t152 60v-49q-72 -41 -154 -58 t-168 -17q-94 0 -185 29.5t-162 91t-114 156.5t-43 226z" />
<glyph unicode="d" horiz-adv-x="1255" d="M100 492q0 119 37 213t102.5 160.5t154.5 102.5t194 36q78 0 146.5 -21.5t126 -58.5t101.5 -86.5t72 -106.5v703h49v-1434h-45v256q-31 -59 -75.5 -109.5t-102 -87t-126 -58t-146.5 -21.5q-104 0 -193.5 35.5t-155 102t-102.5 161t-37 213.5zM150 492q0 -109 33.5 -196 t93 -147.5t140.5 -92t175 -31.5q80 0 150.5 24.5t128 67.5t99.5 101t64 124v299q-23 66 -64.5 124t-99 101t-128 67.5t-150.5 24.5q-94 0 -175 -31.5t-140.5 -92t-93 -146.5t-33.5 -196z" />
<glyph unicode="e" horiz-adv-x="1116" d="M100 492q0 123 41 219t107.5 160.5t152.5 98.5t179 34q135 0 226 -52.5t142 -132.5q52 -80 68 -175q9 -51 9 -100q0 -41 -7 -81h-868q2 -117 45 -200t110.5 -136t154.5 -77.5t181 -24.5q86 0 170 20.5t147 56.5v-49q-63 -37 -148 -55t-175 -18q-104 0 -200.5 29.5 t-171.5 91t-119 159t-44 232.5zM150 508h825q2 20 2 41q1 53 -11 109q-16 78 -62 145t-125 111t-197 44q-84 0 -161 -29.5t-136.5 -86t-96 -140.5t-38.5 -194z" />
<glyph unicode="f" horiz-adv-x="710" d="M49 936v47h168v170q0 84 26.5 141.5t69.5 93t99.5 51t115.5 15.5q68 0 130.5 -12t103.5 -35v-47q-39 23 -100.5 36t-124.5 13q-53 0 -102.5 -13.5t-86.5 -44t-59.5 -79.5t-22.5 -121v-168h436v-47h-436v-936h-49v936h-168z" />
<glyph unicode="g" horiz-adv-x="1255" d="M100 492q0 119 37 213t102.5 160.5t154.5 102.5t194 36q78 0 146.5 -21.5t126 -58.5t102.5 -88.5t75 -108.5v256h45v-983q0 -125 -43 -214t-114.5 -146.5t-164.5 -84t-192 -26.5q-104 0 -200.5 23.5t-184.5 68.5v49q90 -47 183.5 -71.5t197.5 -24.5q92 0 177 24.5 t149.5 76t103.5 132t39 193.5v254q-29 -57 -72.5 -107.5t-101 -87t-126 -58t-146.5 -21.5q-104 0 -193.5 35.5t-155 102t-102.5 161t-37 213.5zM150 492q0 -109 33.5 -196t93 -147.5t140.5 -92t175 -31.5q80 0 150.5 24.5t128 66.5t99.5 99t64 123v303q-23 66 -64.5 124 t-99 101t-128 67.5t-150.5 24.5q-94 0 -175 -31.5t-140.5 -92t-93 -146.5t-33.5 -196z" />
<glyph unicode="h" horiz-adv-x="1175" d="M172 0v1434h49v-668q25 37 64 79t91 77.5t117.5 58.5t143.5 23q80 0 149.5 -27t120.5 -78t81 -126t30 -169v-604h-49v600q0 86 -25.5 153.5t-72 112.5t-108 68.5t-130.5 23.5q-78 0 -143.5 -24.5t-116.5 -62t-89 -85t-63 -92.5v-694h-49z" />
<glyph unicode="i" horiz-adv-x="405" d="M162 1260q0 20 12 30t29 10q16 0 28.5 -10t12.5 -30t-12.5 -29.5t-28.5 -9.5t-28.5 9t-12.5 30zM178 0v983h49v-983h-49z" />
<glyph unicode="j" horiz-adv-x="405" d="M-152 -401q61 -23 132 -23q37 0 72.5 9t63 31t45 58.5t17.5 92.5v1216h49v-1221q0 -68 -21.5 -112.5t-55 -71.5t-76.5 -38t-86 -11q-76 0 -140 22v48zM162 1260q0 20 12 30t29 10q16 0 28.5 -10t12.5 -30t-12.5 -29.5t-28.5 -9.5t-28.5 9t-12.5 30z" />
<glyph unicode="k" horiz-adv-x="1003" d="M172 0v1434h49v-902h268l390 451h59l-410 -477l467 -506h-59l-451 485h-264v-485h-49z" />
<glyph unicode="l" horiz-adv-x="405" d="M178 0v1495h49v-1495h-49z" />
<glyph unicode="m" horiz-adv-x="1830" d="M172 0v983h45v-209q25 37 61.5 77t86 73.5t111 56.5t132.5 23q119 0 204 -60.5t120 -163.5q27 37 65.5 77t88 72t108.5 53.5t129 21.5q78 0 142.5 -27t110.5 -75t70.5 -114.5t24.5 -146.5v-641h-49v639q0 68 -20.5 126t-60.5 101t-96 67.5t-126 24.5q-66 0 -123 -21.5 t-103 -54t-83 -74.5t-62 -81q8 -35 8 -86v-641h-49v639q0 68 -20.5 126t-60.5 101t-96 67.5t-126 24.5t-129 -23.5t-108.5 -60t-85 -81.5t-60.5 -86v-707h-49z" />
<glyph unicode="n" horiz-adv-x="1175" d="M172 0v983h45v-221q25 39 63.5 81t92 77.5t119 59.5t145.5 24t149.5 -27t120.5 -78t81 -126t30 -169v-604h-49v600q0 86 -25.5 153.5t-72 112.5t-108 68.5t-130.5 23.5q-78 0 -143.5 -24.5t-116.5 -62t-89 -85t-63 -92.5v-694h-49z" />
<glyph unicode="o" horiz-adv-x="1212" d="M100 492q0 123 42 218t112 160.5t162 99.5t190 34q100 0 191.5 -34t161 -99.5t111.5 -161t42 -217.5q0 -123 -42 -218.5t-111.5 -161t-160.5 -99t-192 -33.5q-98 0 -190 33.5t-162 99t-112 161t-42 218.5zM150 492q0 -111 36.5 -198t100 -146.5t145.5 -90t174 -30.5 t174 30.5t145.5 90t100.5 146.5t37 198t-37 197.5t-100.5 146t-145.5 90t-174 30.5t-174 -30.5t-145.5 -90t-100 -146.5t-36.5 -197z" />
<glyph unicode="p" horiz-adv-x="1255" d="M172 -451v1434h45v-256q31 57 76 108.5t102.5 88.5t126 58.5t146.5 21.5q104 0 193 -36t154.5 -102.5t102.5 -161t37 -212.5q0 -119 -37 -213.5t-102.5 -161t-154.5 -102t-193 -35.5q-78 0 -146.5 21.5t-126 58t-101.5 86t-73 106.5v-703h-49zM221 342q23 -66 65 -124 t99 -101t128 -67.5t151 -24.5q94 0 175 31.5t140 92t93 146.5t34 197q0 109 -34 195.5t-92 147t-140 92t-176 31.5q-80 0 -151 -24.5t-128 -67.5t-99 -101t-65 -124v-299z" />
<glyph unicode="q" horiz-adv-x="1255" d="M100 492q0 119 37 213t102.5 160.5t154.5 102.5t194 36q78 0 146.5 -21.5t126 -58.5t102.5 -88.5t75 -108.5v256h45v-1434h-49v703q-29 -57 -72.5 -106.5t-101 -86t-126 -58t-146.5 -21.5q-104 0 -193.5 35.5t-155 102t-102.5 161t-37 213.5zM150 492q0 -111 33.5 -197 t93 -146.5t140.5 -92t175 -31.5q80 0 150.5 24.5t128 67.5t99.5 101t64 124v299q-23 66 -64.5 124t-99 101t-128 67.5t-150.5 24.5q-94 0 -175 -31.5t-140.5 -92t-93 -147.5t-33.5 -195z" />
<glyph unicode="r" horiz-adv-x="688" d="M172 0v983h45v-301q25 63 66 121.5t97 102.5t128 71t158 27v-50h-11q-86 0 -157 -30q-76 -32 -131.5 -84t-92 -119.5t-53.5 -136.5v-584h-49z" />
<glyph unicode="s" horiz-adv-x="925" d="M100 78v49q37 -25 81 -43t93.5 -31.5t100.5 -20.5t98 -7q63 0 121.5 12t102.5 36.5t70 63.5t26 92q0 80 -50.5 124t-127 72t-165 48.5t-165 52t-126.5 84t-50 144.5q0 68 30.5 114.5t79.5 77.5t110.5 44.5t123.5 13.5q92 0 181 -24t152 -60v-50q-59 39 -150 63.5 t-181 24.5q-55 0 -107.5 -11t-94.5 -35.5t-67.5 -62.5t-25.5 -93q0 -82 50 -127t126 -73t165 -48.5t164.5 -51t126 -82.5t50.5 -143q0 -68 -31 -115.5t-81 -77.5t-116.5 -44t-138.5 -14q-49 0 -101 7t-102.5 19t-94.5 30.5t-77 41.5z" />
<glyph unicode="t" horiz-adv-x="741" d="M27 936v47h184v324l49 16v-340h438v-47h-438v-657q0 -250 252 -250q61 0 114.5 13t96.5 36v-47q-41 -23 -98.5 -36t-122.5 -13q-139 0 -215 74.5t-76 215.5v664h-184z" />
<glyph unicode="u" horiz-adv-x="1175" d="M158 379v604h49v-600q0 -86 25.5 -153.5t70.5 -112.5t106.5 -68.5t133.5 -23.5q78 0 143.5 24.5t116.5 62.5t89 85t62 92v694h50v-983h-46v221q-25 -39 -63.5 -81t-91.5 -77.5t-119 -59t-145 -23.5q-82 0 -152 26.5t-121 77.5t-79.5 126t-28.5 169z" />
<glyph unicode="v" horiz-adv-x="1069" d="M45 983h55l435 -928l434 928h55l-463 -983h-53z" />
<glyph unicode="w" horiz-adv-x="1634" d="M55 983h54l350 -920l334 904h49l336 -904l350 920h51l-377 -983h-49l-336 903l-334 -903h-49z" />
<glyph unicode="x" horiz-adv-x="987" d="M35 0l430 504l-408 479h60l377 -442l378 442h58l-406 -479l428 -504h-59l-399 469l-400 -469h-59z" />
<glyph unicode="y" horiz-adv-x="1085" d="M35 983h53l479 -932l418 932h53l-522 -1163q-37 -82 -73.5 -137.5t-76.5 -89t-83 -49t-93 -15.5q-49 0 -100 12v45q49 -12 96 -12q92 0 161 63.5t128 204.5l68 154z" />
<glyph unicode="z" horiz-adv-x="907" d="M61 0v41l695 897h-666v45h729v-41l-694 -897h717v-45h-781z" />
<glyph unicode="{" d="M145 0v1434h476v-1434h-476zM252 1176q0 -53 37 -90t96 -37q47 0 88 30.5t41 96.5t-42 95t-89 32q-47 0 -89 -30.5t-42 -96.5zM258 158h248v98q0 66 -39 95.5t-86 27.5q-47 0 -85 -28.5t-38 -94.5v-98zM258 451h248v184h-43v-137h-57v133h-44v-133h-57v137h-47v-184z M258 715h248v45h-178l108 80v8l-108 84h178v45h-248v-53l109 -80l-109 -76v-53zM297 1176q0 45 28.5 63t59.5 18q31 -4 57.5 -20t26.5 -61t-26.5 -63.5t-57.5 -18.5q-37 -2 -63.5 19.5t-24.5 62.5zM303 203v53q-2 41 23.5 57.5t54.5 20.5q29 0 55.5 -17.5t26.5 -60.5v-53 h-160z" />
<glyph unicode="|" d="M145 0v1434h476v-1434h-476zM252 1176q0 -53 37 -90t96 -37q47 0 88 30.5t41 96.5t-42 95t-89 32q-47 0 -89 -30.5t-42 -96.5zM258 158h248v98q0 66 -39 95.5t-86 27.5q-47 0 -85 -28.5t-38 -94.5v-98zM258 451h248v184h-43v-137h-57v133h-44v-133h-57v137h-47v-184z M258 715h248v45h-178l108 80v8l-108 84h178v45h-248v-53l109 -80l-109 -76v-53zM297 1176q0 45 28.5 63t59.5 18q31 -4 57.5 -20t26.5 -61t-26.5 -63.5t-57.5 -18.5q-37 -2 -63.5 19.5t-24.5 62.5zM303 203v53q-2 41 23.5 57.5t54.5 20.5q29 0 55.5 -17.5t26.5 -60.5v-53 h-160z" />
<glyph unicode="}" d="M145 0v1434h476v-1434h-476zM252 1176q0 -53 37 -90t96 -37q47 0 88 30.5t41 96.5t-42 95t-89 32q-47 0 -89 -30.5t-42 -96.5zM258 158h248v98q0 66 -39 95.5t-86 27.5q-47 0 -85 -28.5t-38 -94.5v-98zM258 451h248v184h-43v-137h-57v133h-44v-133h-57v137h-47v-184z M258 715h248v45h-178l108 80v8l-108 84h178v45h-248v-53l109 -80l-109 -76v-53zM297 1176q0 45 28.5 63t59.5 18q31 -4 57.5 -20t26.5 -61t-26.5 -63.5t-57.5 -18.5q-37 -2 -63.5 19.5t-24.5 62.5zM303 203v53q-2 41 23.5 57.5t54.5 20.5q29 0 55.5 -17.5t26.5 -60.5v-53 h-160z" />
<glyph unicode="~" d="M145 0v1434h476v-1434h-476zM252 1176q0 -53 37 -90t96 -37q47 0 88 30.5t41 96.5t-42 95t-89 32q-47 0 -89 -30.5t-42 -96.5zM258 158h248v98q0 66 -39 95.5t-86 27.5q-47 0 -85 -28.5t-38 -94.5v-98zM258 451h248v184h-43v-137h-57v133h-44v-133h-57v137h-47v-184z M258 715h248v45h-178l108 80v8l-108 84h178v45h-248v-53l109 -80l-109 -76v-53zM297 1176q0 45 28.5 63t59.5 18q31 -4 57.5 -20t26.5 -61t-26.5 -63.5t-57.5 -18.5q-37 -2 -63.5 19.5t-24.5 62.5zM303 203v53q-2 41 23.5 57.5t54.5 20.5q29 0 55.5 -17.5t26.5 -60.5v-53 h-160z" />
<glyph unicode="&#xa1;" d="M145 0v1434h476v-1434h-476zM252 1176q0 -53 37 -90t96 -37q47 0 88 30.5t41 96.5t-42 95t-89 32q-47 0 -89 -30.5t-42 -96.5zM258 158h248v98q0 66 -39 95.5t-86 27.5q-47 0 -85 -28.5t-38 -94.5v-98zM258 451h248v184h-43v-137h-57v133h-44v-133h-57v137h-47v-184z M258 715h248v45h-178l108 80v8l-108 84h178v45h-248v-53l109 -80l-109 -76v-53zM297 1176q0 45 28.5 63t59.5 18q31 -4 57.5 -20t26.5 -61t-26.5 -63.5t-57.5 -18.5q-37 -2 -63.5 19.5t-24.5 62.5zM303 203v53q-2 41 23.5 57.5t54.5 20.5q29 0 55.5 -17.5t26.5 -60.5v-53 h-160z" />
<glyph unicode="&#xa2;" d="M145 0v1434h476v-1434h-476zM252 1176q0 -53 37 -90t96 -37q47 0 88 30.5t41 96.5t-42 95t-89 32q-47 0 -89 -30.5t-42 -96.5zM258 158h248v98q0 66 -39 95.5t-86 27.5q-47 0 -85 -28.5t-38 -94.5v-98zM258 451h248v184h-43v-137h-57v133h-44v-133h-57v137h-47v-184z M258 715h248v45h-178l108 80v8l-108 84h178v45h-248v-53l109 -80l-109 -76v-53zM297 1176q0 45 28.5 63t59.5 18q31 -4 57.5 -20t26.5 -61t-26.5 -63.5t-57.5 -18.5q-37 -2 -63.5 19.5t-24.5 62.5zM303 203v53q-2 41 23.5 57.5t54.5 20.5q29 0 55.5 -17.5t26.5 -60.5v-53 h-160z" />
<glyph unicode="&#xa3;" d="M145 0v1434h476v-1434h-476zM252 1176q0 -53 37 -90t96 -37q47 0 88 30.5t41 96.5t-42 95t-89 32q-47 0 -89 -30.5t-42 -96.5zM258 158h248v98q0 66 -39 95.5t-86 27.5q-47 0 -85 -28.5t-38 -94.5v-98zM258 451h248v184h-43v-137h-57v133h-44v-133h-57v137h-47v-184z M258 715h248v45h-178l108 80v8l-108 84h178v45h-248v-53l109 -80l-109 -76v-53zM297 1176q0 45 28.5 63t59.5 18q31 -4 57.5 -20t26.5 -61t-26.5 -63.5t-57.5 -18.5q-37 -2 -63.5 19.5t-24.5 62.5zM303 203v53q-2 41 23.5 57.5t54.5 20.5q29 0 55.5 -17.5t26.5 -60.5v-53 h-160z" />
<glyph unicode="&#xa4;" d="M145 0v1434h476v-1434h-476zM252 1176q0 -53 37 -90t96 -37q47 0 88 30.5t41 96.5t-42 95t-89 32q-47 0 -89 -30.5t-42 -96.5zM258 158h248v98q0 66 -39 95.5t-86 27.5q-47 0 -85 -28.5t-38 -94.5v-98zM258 451h248v184h-43v-137h-57v133h-44v-133h-57v137h-47v-184z M258 715h248v45h-178l108 80v8l-108 84h178v45h-248v-53l109 -80l-109 -76v-53zM297 1176q0 45 28.5 63t59.5 18q31 -4 57.5 -20t26.5 -61t-26.5 -63.5t-57.5 -18.5q-37 -2 -63.5 19.5t-24.5 62.5zM303 203v53q-2 41 23.5 57.5t54.5 20.5q29 0 55.5 -17.5t26.5 -60.5v-53 h-160z" />
<glyph unicode="&#xa5;" d="M145 0v1434h476v-1434h-476zM252 1176q0 -53 37 -90t96 -37q47 0 88 30.5t41 96.5t-42 95t-89 32q-47 0 -89 -30.5t-42 -96.5zM258 158h248v98q0 66 -39 95.5t-86 27.5q-47 0 -85 -28.5t-38 -94.5v-98zM258 451h248v184h-43v-137h-57v133h-44v-133h-57v137h-47v-184z M258 715h248v45h-178l108 80v8l-108 84h178v45h-248v-53l109 -80l-109 -76v-53zM297 1176q0 45 28.5 63t59.5 18q31 -4 57.5 -20t26.5 -61t-26.5 -63.5t-57.5 -18.5q-37 -2 -63.5 19.5t-24.5 62.5zM303 203v53q-2 41 23.5 57.5t54.5 20.5q29 0 55.5 -17.5t26.5 -60.5v-53 h-160z" />
<glyph unicode="&#xa6;" d="M145 0v1434h476v-1434h-476zM252 1176q0 -53 37 -90t96 -37q47 0 88 30.5t41 96.5t-42 95t-89 32q-47 0 -89 -30.5t-42 -96.5zM258 158h248v98q0 66 -39 95.5t-86 27.5q-47 0 -85 -28.5t-38 -94.5v-98zM258 451h248v184h-43v-137h-57v133h-44v-133h-57v137h-47v-184z M258 715h248v45h-178l108 80v8l-108 84h178v45h-248v-53l109 -80l-109 -76v-53zM297 1176q0 45 28.5 63t59.5 18q31 -4 57.5 -20t26.5 -61t-26.5 -63.5t-57.5 -18.5q-37 -2 -63.5 19.5t-24.5 62.5zM303 203v53q-2 41 23.5 57.5t54.5 20.5q29 0 55.5 -17.5t26.5 -60.5v-53 h-160z" />
<glyph unicode="&#xa7;" d="M145 0v1434h476v-1434h-476zM252 1176q0 -53 37 -90t96 -37q47 0 88 30.5t41 96.5t-42 95t-89 32q-47 0 -89 -30.5t-42 -96.5zM258 158h248v98q0 66 -39 95.5t-86 27.5q-47 0 -85 -28.5t-38 -94.5v-98zM258 451h248v184h-43v-137h-57v133h-44v-133h-57v137h-47v-184z M258 715h248v45h-178l108 80v8l-108 84h178v45h-248v-53l109 -80l-109 -76v-53zM297 1176q0 45 28.5 63t59.5 18q31 -4 57.5 -20t26.5 -61t-26.5 -63.5t-57.5 -18.5q-37 -2 -63.5 19.5t-24.5 62.5zM303 203v53q-2 41 23.5 57.5t54.5 20.5q29 0 55.5 -17.5t26.5 -60.5v-53 h-160z" />
<glyph unicode="&#xa8;" horiz-adv-x="565" d="M-248 1534v338h1024v-338h-1024zM-131 1612h63q47 0 72 24.5t25 65.5q0 37 -24.5 63.5t-72.5 26.5h-63v-180zM-100 1642v117h32q31 0 47.5 -16.5t16.5 -40.5q0 -59 -64 -60h-32zM80 1612h127v30h-94v44h94v32h-94v41h94v33h-127v-180zM258 1612h35v135l61 -80l64 82v-137 h33v180h-43l-54 -74l-53 74h-43v-180zM502 1706q0 -39 22.5 -67.5t69.5 -28.5q49 0 72.5 28.5t23.5 67.5q0 45 -27.5 70.5t-68.5 25.5q-39 0 -65.5 -27.5t-26.5 -68.5zM532 1706q0 25 15.5 45.5t46.5 20.5q33 0 48 -20.5t15 -45.5q0 -27 -14 -46.5t-49 -19.5 q-31 0 -46.5 21.5t-15.5 44.5z" />
<glyph unicode="&#xa9;" d="M145 0v1434h476v-1434h-476zM252 1176q0 -53 37 -90t96 -37q47 0 88 30.5t41 96.5t-42 95t-89 32q-47 0 -89 -30.5t-42 -96.5zM258 158h248v98q0 66 -39 95.5t-86 27.5q-47 0 -85 -28.5t-38 -94.5v-98zM258 451h248v184h-43v-137h-57v133h-44v-133h-57v137h-47v-184z M258 715h248v45h-178l108 80v8l-108 84h178v45h-248v-53l109 -80l-109 -76v-53zM297 1176q0 45 28.5 63t59.5 18q31 -4 57.5 -20t26.5 -61t-26.5 -63.5t-57.5 -18.5q-37 -2 -63.5 19.5t-24.5 62.5zM303 203v53q-2 41 23.5 57.5t54.5 20.5q29 0 55.5 -17.5t26.5 -60.5v-53 h-160z" />
<glyph unicode="&#xab;" d="M145 0v1434h476v-1434h-476zM252 1176q0 -53 37 -90t96 -37q47 0 88 30.5t41 96.5t-42 95t-89 32q-47 0 -89 -30.5t-42 -96.5zM258 158h248v98q0 66 -39 95.5t-86 27.5q-47 0 -85 -28.5t-38 -94.5v-98zM258 451h248v184h-43v-137h-57v133h-44v-133h-57v137h-47v-184z M258 715h248v45h-178l108 80v8l-108 84h178v45h-248v-53l109 -80l-109 -76v-53zM297 1176q0 45 28.5 63t59.5 18q31 -4 57.5 -20t26.5 -61t-26.5 -63.5t-57.5 -18.5q-37 -2 -63.5 19.5t-24.5 62.5zM303 203v53q-2 41 23.5 57.5t54.5 20.5q29 0 55.5 -17.5t26.5 -60.5v-53 h-160z" />
<glyph unicode="&#xac;" d="M145 0v1434h476v-1434h-476zM252 1176q0 -53 37 -90t96 -37q47 0 88 30.5t41 96.5t-42 95t-89 32q-47 0 -89 -30.5t-42 -96.5zM258 158h248v98q0 66 -39 95.5t-86 27.5q-47 0 -85 -28.5t-38 -94.5v-98zM258 451h248v184h-43v-137h-57v133h-44v-133h-57v137h-47v-184z M258 715h248v45h-178l108 80v8l-108 84h178v45h-248v-53l109 -80l-109 -76v-53zM297 1176q0 45 28.5 63t59.5 18q31 -4 57.5 -20t26.5 -61t-26.5 -63.5t-57.5 -18.5q-37 -2 -63.5 19.5t-24.5 62.5zM303 203v53q-2 41 23.5 57.5t54.5 20.5q29 0 55.5 -17.5t26.5 -60.5v-53 h-160z" />
<glyph unicode="&#xad;" horiz-adv-x="993" d="M145 473v47h703v-47h-703z" />
<glyph unicode="&#xae;" d="M145 0v1434h476v-1434h-476zM252 1176q0 -53 37 -90t96 -37q47 0 88 30.5t41 96.5t-42 95t-89 32q-47 0 -89 -30.5t-42 -96.5zM258 158h248v98q0 66 -39 95.5t-86 27.5q-47 0 -85 -28.5t-38 -94.5v-98zM258 451h248v184h-43v-137h-57v133h-44v-133h-57v137h-47v-184z M258 715h248v45h-178l108 80v8l-108 84h178v45h-248v-53l109 -80l-109 -76v-53zM297 1176q0 45 28.5 63t59.5 18q31 -4 57.5 -20t26.5 -61t-26.5 -63.5t-57.5 -18.5q-37 -2 -63.5 19.5t-24.5 62.5zM303 203v53q-2 41 23.5 57.5t54.5 20.5q29 0 55.5 -17.5t26.5 -60.5v-53 h-160z" />
<glyph unicode="&#xaf;" horiz-adv-x="606" d="M-229 1534v338h1024v-338h-1024zM-113 1612h64q47 0 71.5 24.5t24.5 65.5q0 37 -24.5 63.5t-71.5 26.5h-64v-180zM-82 1642v117h33q31 0 47 -16.5t16 -40.5q0 -59 -63 -60h-33zM98 1612h127v30h-94v44h94v32h-94v41h94v33h-127v-180zM276 1612h35v135l62 -80l63 82v-137 h33v180h-43l-53 -74l-54 74h-43v-180zM520 1706q0 -39 22.5 -67.5t69.5 -28.5q49 0 73 28.5t24 67.5q0 45 -28 70.5t-69 25.5q-39 0 -65.5 -27.5t-26.5 -68.5zM551 1706q0 25 15.5 45.5t45.5 20.5q33 0 48.5 -20.5t15.5 -45.5q0 -27 -14.5 -46.5t-49.5 -19.5q-31 0 -46 21.5 t-15 44.5z" />
<glyph unicode="&#xb0;" d="M145 0v1434h476v-1434h-476zM252 1176q0 -53 37 -90t96 -37q47 0 88 30.5t41 96.5t-42 95t-89 32q-47 0 -89 -30.5t-42 -96.5zM258 158h248v98q0 66 -39 95.5t-86 27.5q-47 0 -85 -28.5t-38 -94.5v-98zM258 451h248v184h-43v-137h-57v133h-44v-133h-57v137h-47v-184z M258 715h248v45h-178l108 80v8l-108 84h178v45h-248v-53l109 -80l-109 -76v-53zM297 1176q0 45 28.5 63t59.5 18q31 -4 57.5 -20t26.5 -61t-26.5 -63.5t-57.5 -18.5q-37 -2 -63.5 19.5t-24.5 62.5zM303 203v53q-2 41 23.5 57.5t54.5 20.5q29 0 55.5 -17.5t26.5 -60.5v-53 h-160z" />
<glyph unicode="&#xb1;" d="M145 0v1434h476v-1434h-476zM252 1176q0 -53 37 -90t96 -37q47 0 88 30.5t41 96.5t-42 95t-89 32q-47 0 -89 -30.5t-42 -96.5zM258 158h248v98q0 66 -39 95.5t-86 27.5q-47 0 -85 -28.5t-38 -94.5v-98zM258 451h248v184h-43v-137h-57v133h-44v-133h-57v137h-47v-184z M258 715h248v45h-178l108 80v8l-108 84h178v45h-248v-53l109 -80l-109 -76v-53zM297 1176q0 45 28.5 63t59.5 18q31 -4 57.5 -20t26.5 -61t-26.5 -63.5t-57.5 -18.5q-37 -2 -63.5 19.5t-24.5 62.5zM303 203v53q-2 41 23.5 57.5t54.5 20.5q29 0 55.5 -17.5t26.5 -60.5v-53 h-160z" />
<glyph unicode="&#xb2;" d="M145 0v1434h476v-1434h-476zM252 1176q0 -53 37 -90t96 -37q47 0 88 30.5t41 96.5t-42 95t-89 32q-47 0 -89 -30.5t-42 -96.5zM258 158h248v98q0 66 -39 95.5t-86 27.5q-47 0 -85 -28.5t-38 -94.5v-98zM258 451h248v184h-43v-137h-57v133h-44v-133h-57v137h-47v-184z M258 715h248v45h-178l108 80v8l-108 84h178v45h-248v-53l109 -80l-109 -76v-53zM297 1176q0 45 28.5 63t59.5 18q31 -4 57.5 -20t26.5 -61t-26.5 -63.5t-57.5 -18.5q-37 -2 -63.5 19.5t-24.5 62.5zM303 203v53q-2 41 23.5 57.5t54.5 20.5q29 0 55.5 -17.5t26.5 -60.5v-53 h-160z" />
<glyph unicode="&#xb3;" d="M145 0v1434h476v-1434h-476zM252 1176q0 -53 37 -90t96 -37q47 0 88 30.5t41 96.5t-42 95t-89 32q-47 0 -89 -30.5t-42 -96.5zM258 158h248v98q0 66 -39 95.5t-86 27.5q-47 0 -85 -28.5t-38 -94.5v-98zM258 451h248v184h-43v-137h-57v133h-44v-133h-57v137h-47v-184z M258 715h248v45h-178l108 80v8l-108 84h178v45h-248v-53l109 -80l-109 -76v-53zM297 1176q0 45 28.5 63t59.5 18q31 -4 57.5 -20t26.5 -61t-26.5 -63.5t-57.5 -18.5q-37 -2 -63.5 19.5t-24.5 62.5zM303 203v53q-2 41 23.5 57.5t54.5 20.5q29 0 55.5 -17.5t26.5 -60.5v-53 h-160z" />
<glyph unicode="&#xb4;" horiz-adv-x="337" d="M-356 1534v338h1024v-338h-1024zM-240 1612h64q47 0 71.5 24.5t24.5 65.5q0 37 -24.5 63.5t-71.5 26.5h-64v-180zM-209 1642v117h33q31 0 47 -16.5t16 -40.5q0 -59 -63 -60h-33zM-29 1612h127v30h-94v44h94v32h-94v41h94v33h-127v-180zM150 1612h34v135l62 -80l63 82 v-137h33v180h-43l-53 -74l-53 74h-43v-180zM393 1706q0 -39 22.5 -67.5t69.5 -28.5q49 0 73 28.5t24 67.5q0 45 -28 70.5t-69 25.5q-39 0 -65.5 -27.5t-26.5 -68.5zM424 1706q0 25 15.5 45.5t45.5 20.5q33 0 48.5 -20.5t15.5 -45.5q0 -27 -14.5 -46.5t-49.5 -19.5 q-31 0 -46 21.5t-15 44.5z" />
<glyph unicode="&#xb6;" d="M145 0v1434h476v-1434h-476zM252 1176q0 -53 37 -90t96 -37q47 0 88 30.5t41 96.5t-42 95t-89 32q-47 0 -89 -30.5t-42 -96.5zM258 158h248v98q0 66 -39 95.5t-86 27.5q-47 0 -85 -28.5t-38 -94.5v-98zM258 451h248v184h-43v-137h-57v133h-44v-133h-57v137h-47v-184z M258 715h248v45h-178l108 80v8l-108 84h178v45h-248v-53l109 -80l-109 -76v-53zM297 1176q0 45 28.5 63t59.5 18q31 -4 57.5 -20t26.5 -61t-26.5 -63.5t-57.5 -18.5q-37 -2 -63.5 19.5t-24.5 62.5zM303 203v53q-2 41 23.5 57.5t54.5 20.5q29 0 55.5 -17.5t26.5 -60.5v-53 h-160z" />
<glyph unicode="&#xb7;" d="M145 0v1434h476v-1434h-476zM252 1176q0 -53 37 -90t96 -37q47 0 88 30.5t41 96.5t-42 95t-89 32q-47 0 -89 -30.5t-42 -96.5zM258 158h248v98q0 66 -39 95.5t-86 27.5q-47 0 -85 -28.5t-38 -94.5v-98zM258 451h248v184h-43v-137h-57v133h-44v-133h-57v137h-47v-184z M258 715h248v45h-178l108 80v8l-108 84h178v45h-248v-53l109 -80l-109 -76v-53zM297 1176q0 45 28.5 63t59.5 18q31 -4 57.5 -20t26.5 -61t-26.5 -63.5t-57.5 -18.5q-37 -2 -63.5 19.5t-24.5 62.5zM303 203v53q-2 41 23.5 57.5t54.5 20.5q29 0 55.5 -17.5t26.5 -60.5v-53 h-160z" />
<glyph unicode="&#xb8;" horiz-adv-x="430" d="M0 -383q84 -45 197 -45q102 0 147 34t43 81q0 33 -23.5 54t-60.5 30.5t-83 7.5t-93 -15l57 236h45l-49 -197q45 10 90 8.5t81 -17t58.5 -43t22.5 -66.5q2 -70 -56.5 -113t-174.5 -43q-63 0 -112.5 12.5t-88.5 32.5v43z" />
<glyph unicode="&#xb9;" d="M145 0v1434h476v-1434h-476zM252 1176q0 -53 37 -90t96 -37q47 0 88 30.5t41 96.5t-42 95t-89 32q-47 0 -89 -30.5t-42 -96.5zM258 158h248v98q0 66 -39 95.5t-86 27.5q-47 0 -85 -28.5t-38 -94.5v-98zM258 451h248v184h-43v-137h-57v133h-44v-133h-57v137h-47v-184z M258 715h248v45h-178l108 80v8l-108 84h178v45h-248v-53l109 -80l-109 -76v-53zM297 1176q0 45 28.5 63t59.5 18q31 -4 57.5 -20t26.5 -61t-26.5 -63.5t-57.5 -18.5q-37 -2 -63.5 19.5t-24.5 62.5zM303 203v53q-2 41 23.5 57.5t54.5 20.5q29 0 55.5 -17.5t26.5 -60.5v-53 h-160z" />
<glyph unicode="&#xbb;" d="M145 0v1434h476v-1434h-476zM252 1176q0 -53 37 -90t96 -37q47 0 88 30.5t41 96.5t-42 95t-89 32q-47 0 -89 -30.5t-42 -96.5zM258 158h248v98q0 66 -39 95.5t-86 27.5q-47 0 -85 -28.5t-38 -94.5v-98zM258 451h248v184h-43v-137h-57v133h-44v-133h-57v137h-47v-184z M258 715h248v45h-178l108 80v8l-108 84h178v45h-248v-53l109 -80l-109 -76v-53zM297 1176q0 45 28.5 63t59.5 18q31 -4 57.5 -20t26.5 -61t-26.5 -63.5t-57.5 -18.5q-37 -2 -63.5 19.5t-24.5 62.5zM303 203v53q-2 41 23.5 57.5t54.5 20.5q29 0 55.5 -17.5t26.5 -60.5v-53 h-160z" />
<glyph unicode="&#xbc;" d="M145 0v1434h476v-1434h-476zM252 1176q0 -53 37 -90t96 -37q47 0 88 30.5t41 96.5t-42 95t-89 32q-47 0 -89 -30.5t-42 -96.5zM258 158h248v98q0 66 -39 95.5t-86 27.5q-47 0 -85 -28.5t-38 -94.5v-98zM258 451h248v184h-43v-137h-57v133h-44v-133h-57v137h-47v-184z M258 715h248v45h-178l108 80v8l-108 84h178v45h-248v-53l109 -80l-109 -76v-53zM297 1176q0 45 28.5 63t59.5 18q31 -4 57.5 -20t26.5 -61t-26.5 -63.5t-57.5 -18.5q-37 -2 -63.5 19.5t-24.5 62.5zM303 203v53q-2 41 23.5 57.5t54.5 20.5q29 0 55.5 -17.5t26.5 -60.5v-53 h-160z" />
<glyph unicode="&#xbd;" d="M145 0v1434h476v-1434h-476zM252 1176q0 -53 37 -90t96 -37q47 0 88 30.5t41 96.5t-42 95t-89 32q-47 0 -89 -30.5t-42 -96.5zM258 158h248v98q0 66 -39 95.5t-86 27.5q-47 0 -85 -28.5t-38 -94.5v-98zM258 451h248v184h-43v-137h-57v133h-44v-133h-57v137h-47v-184z M258 715h248v45h-178l108 80v8l-108 84h178v45h-248v-53l109 -80l-109 -76v-53zM297 1176q0 45 28.5 63t59.5 18q31 -4 57.5 -20t26.5 -61t-26.5 -63.5t-57.5 -18.5q-37 -2 -63.5 19.5t-24.5 62.5zM303 203v53q-2 41 23.5 57.5t54.5 20.5q29 0 55.5 -17.5t26.5 -60.5v-53 h-160z" />
<glyph unicode="&#xbe;" d="M145 0v1434h476v-1434h-476zM252 1176q0 -53 37 -90t96 -37q47 0 88 30.5t41 96.5t-42 95t-89 32q-47 0 -89 -30.5t-42 -96.5zM258 158h248v98q0 66 -39 95.5t-86 27.5q-47 0 -85 -28.5t-38 -94.5v-98zM258 451h248v184h-43v-137h-57v133h-44v-133h-57v137h-47v-184z M258 715h248v45h-178l108 80v8l-108 84h178v45h-248v-53l109 -80l-109 -76v-53zM297 1176q0 45 28.5 63t59.5 18q31 -4 57.5 -20t26.5 -61t-26.5 -63.5t-57.5 -18.5q-37 -2 -63.5 19.5t-24.5 62.5zM303 203v53q-2 41 23.5 57.5t54.5 20.5q29 0 55.5 -17.5t26.5 -60.5v-53 h-160z" />
<glyph unicode="&#xbf;" d="M145 0v1434h476v-1434h-476zM252 1176q0 -53 37 -90t96 -37q47 0 88 30.5t41 96.5t-42 95t-89 32q-47 0 -89 -30.5t-42 -96.5zM258 158h248v98q0 66 -39 95.5t-86 27.5q-47 0 -85 -28.5t-38 -94.5v-98zM258 451h248v184h-43v-137h-57v133h-44v-133h-57v137h-47v-184z M258 715h248v45h-178l108 80v8l-108 84h178v45h-248v-53l109 -80l-109 -76v-53zM297 1176q0 45 28.5 63t59.5 18q31 -4 57.5 -20t26.5 -61t-26.5 -63.5t-57.5 -18.5q-37 -2 -63.5 19.5t-24.5 62.5zM303 203v53q-2 41 23.5 57.5t54.5 20.5q29 0 55.5 -17.5t26.5 -60.5v-53 h-160z" />
<glyph unicode="&#xc0;" horiz-adv-x="1441" d="M33 0l659 1434h60l657 -1434h-55l-203 440h-860l-203 -440h-55zM199 1532v338h1024v-338h-1024zM313 489h820l-396 863q-4 10 -7 17t-7 15q-4 -8 -7 -15t-7 -17zM316 1610h63q47 0 71.5 24.5t24.5 65.5q0 37 -24.5 63.5t-71.5 26.5h-63v-180zM346 1640v117h33 q31 0 47.5 -16.5t16.5 -40.5q0 -59 -64 -60h-33zM527 1610h127v30h-95v43h95v33h-95v41h95v33h-127v-180zM705 1610h35v135l61 -80l63 82v-137h33v180h-43l-53 -74l-53 74h-43v-180zM948 1704q0 -39 22.5 -67.5t70.5 -28.5q49 0 72.5 28.5t23.5 67.5q0 45 -27.5 70.5 t-68.5 25.5q-39 0 -66 -27.5t-27 -68.5zM979 1704q0 25 15.5 45t46.5 20q33 0 48 -20t15 -45q0 -27 -14.5 -46.5t-48.5 -19.5q-31 0 -46.5 21.5t-15.5 44.5z" />
<glyph unicode="&#xc1;" horiz-adv-x="1441" d="M33 0l659 1434h60l657 -1434h-55l-203 440h-860l-203 -440h-55zM230 1534v338h1024v-338h-1024zM313 489h820l-396 863q-4 10 -7 17t-7 15q-4 -8 -7 -15t-7 -17zM346 1612h64q47 0 71.5 24.5t24.5 65.5q0 37 -24.5 63.5t-71.5 26.5h-64v-180zM377 1642v117h33 q31 0 47 -16.5t16 -40.5q0 -59 -63 -60h-33zM557 1612h127v30h-94v44h94v32h-94v41h94v33h-127v-180zM736 1612h34v135l62 -80l63 82v-137h33v180h-43l-53 -74l-53 74h-43v-180zM979 1706q0 -39 22.5 -67.5t69.5 -28.5q49 0 73 28.5t24 67.5q0 45 -28 70.5t-69 25.5 q-39 0 -65.5 -27.5t-26.5 -68.5zM1010 1706q0 25 15.5 45.5t45.5 20.5q33 0 48.5 -20.5t15.5 -45.5q0 -27 -14.5 -46.5t-49.5 -19.5q-31 0 -46 21.5t-15 44.5z" />
<glyph unicode="&#xc2;" horiz-adv-x="1441" d="M33 0l659 1434h60l657 -1434h-55l-203 440h-860l-203 -440h-55zM176 1534v338h1024v-338h-1024zM293 1612h64q47 0 71.5 24.5t24.5 65.5q0 37 -24.5 63.5t-71.5 26.5h-64v-180zM313 489h820l-396 863q-4 10 -7 17t-7 15q-4 -8 -7 -15t-7 -17zM324 1642v117h33 q31 0 47 -16.5t16 -40.5q0 -59 -63 -60h-33zM504 1612h127v30h-94v44h94v32h-94v41h94v33h-127v-180zM682 1612h35v135l61 -80l64 82v-137h33v180h-43l-54 -74l-53 74h-43v-180zM926 1706q0 -39 22.5 -67.5t69.5 -28.5q49 0 72.5 28.5t23.5 67.5q0 45 -27.5 70.5t-68.5 25.5 q-39 0 -65.5 -27.5t-26.5 -68.5zM957 1706q0 25 15 45.5t46 20.5q33 0 48.5 -20.5t15.5 -45.5q0 -27 -14.5 -46.5t-49.5 -19.5q-31 0 -46 21.5t-15 44.5z" />
<glyph unicode="&#xc3;" horiz-adv-x="1441" d="M33 0l659 1434h60l657 -1434h-55l-203 440h-860l-203 -440h-55zM174 1534v338h1024v-338h-1024zM291 1612h64q47 0 71.5 24.5t24.5 65.5q0 37 -24.5 63.5t-71.5 26.5h-64v-180zM313 489h820l-396 863q-4 10 -7 17t-7 15q-4 -8 -7 -15t-7 -17zM322 1642v117h33 q31 0 47 -16.5t16 -40.5q0 -59 -63 -60h-33zM502 1612h127v30h-94v44h94v32h-94v41h94v33h-127v-180zM680 1612h35v135l62 -80l63 82v-137h33v180h-43l-53 -74l-54 74h-43v-180zM924 1706q0 -39 22.5 -67.5t69.5 -28.5q49 0 72.5 28.5t23.5 67.5q0 45 -27.5 70.5t-68.5 25.5 q-39 0 -65.5 -27.5t-26.5 -68.5zM955 1706q0 25 15 45.5t46 20.5q33 0 48.5 -20.5t15.5 -45.5q0 -27 -14.5 -46.5t-49.5 -19.5q-31 0 -46 21.5t-15 44.5z" />
<glyph unicode="&#xc4;" horiz-adv-x="1441" d="M33 0l659 1434h60l657 -1434h-55l-203 440h-860l-203 -440h-55zM188 1534v338h1024v-338h-1024zM305 1612h63q47 0 72 24.5t25 65.5q0 37 -24.5 63.5t-72.5 26.5h-63v-180zM313 489h820l-396 863q-4 10 -7 17t-7 15q-4 -8 -7 -15t-7 -17zM336 1642v117h32 q31 0 47.5 -16.5t16.5 -40.5q0 -59 -64 -60h-32zM516 1612h127v30h-94v44h94v32h-94v41h94v33h-127v-180zM694 1612h35v135l61 -80l64 82v-137h33v180h-43l-54 -74l-53 74h-43v-180zM938 1706q0 -39 22.5 -67.5t69.5 -28.5q49 0 72.5 28.5t23.5 67.5q0 45 -27.5 70.5 t-68.5 25.5q-39 0 -65.5 -27.5t-26.5 -68.5zM968 1706q0 25 15.5 45.5t46.5 20.5q33 0 48 -20.5t15 -45.5q0 -27 -14 -46.5t-49 -19.5q-31 0 -46.5 21.5t-15.5 44.5z" />
<glyph unicode="&#xc5;" horiz-adv-x="1441" d="M33 0l659 1434h60l657 -1434h-55l-203 440h-860l-203 -440h-55zM180 1534v338h1024v-338h-1024zM297 1612h63q47 0 72 24.5t25 65.5q0 37 -25 63.5t-72 26.5h-63v-180zM313 489h820l-396 863q-4 10 -7 17t-7 15q-4 -8 -7 -15t-7 -17zM328 1642v117h32q31 0 47.5 -16.5 t16.5 -40.5q0 -59 -64 -60h-32zM508 1612h127v30h-94v44h94v32h-94v41h94v33h-127v-180zM686 1612h35v135l61 -80l64 82v-137h32v180h-43l-53 -74l-53 74h-43v-180zM930 1706q0 -39 22.5 -67.5t69.5 -28.5q49 0 72.5 28.5t23.5 67.5q0 45 -27.5 70.5t-68.5 25.5 q-39 0 -65.5 -27.5t-26.5 -68.5zM960 1706q0 25 15.5 45.5t46.5 20.5q33 0 48 -20.5t15 -45.5q0 -27 -14 -46.5t-49 -19.5q-31 0 -46.5 21.5t-15.5 44.5z" />
<glyph unicode="&#xc6;" d="M145 0v1434h476v-1434h-476zM252 1176q0 -53 37 -90t96 -37q47 0 88 30.5t41 96.5t-42 95t-89 32q-47 0 -89 -30.5t-42 -96.5zM258 158h248v98q0 66 -39 95.5t-86 27.5q-47 0 -85 -28.5t-38 -94.5v-98zM258 451h248v184h-43v-137h-57v133h-44v-133h-57v137h-47v-184z M258 715h248v45h-178l108 80v8l-108 84h178v45h-248v-53l109 -80l-109 -76v-53zM297 1176q0 45 28.5 63t59.5 18q31 -4 57.5 -20t26.5 -61t-26.5 -63.5t-57.5 -18.5q-37 -2 -63.5 19.5t-24.5 62.5zM303 203v53q-2 41 23.5 57.5t54.5 20.5q29 0 55.5 -17.5t26.5 -60.5v-53 h-160z" />
<glyph unicode="&#xc7;" horiz-adv-x="1347" d="M109 698q0 188 64.5 329.5t168.5 237t236.5 142.5t265.5 47q109 0 212 -24.5t189 -73.5v-51q-82 47 -184.5 73.5t-210.5 26.5q-127 0 -250 -44t-221 -132t-158.5 -220t-60.5 -311q0 -172 61.5 -298t159.5 -208.5t222 -122.5t251 -40q236 0 410 102v-51 q-172 -100 -418 -100q-133 0 -265 43t-236.5 132t-170 224t-65.5 319z" />
<glyph unicode="&#xc8;" horiz-adv-x="1286" d="M160 1532v338h1024v-338h-1024zM215 0v1434h932v-50h-881v-639h819v-49h-819v-647h899v-49h-950zM277 1610h63q47 0 71.5 24.5t24.5 65.5q0 37 -24.5 63.5t-71.5 26.5h-63v-180zM307 1640v117h33q31 0 47.5 -16.5t16.5 -40.5q0 -59 -64 -60h-33zM488 1610h127v30h-95v43 h95v33h-95v41h95v33h-127v-180zM666 1610h35v135l61 -80l63 82v-137h33v180h-43l-53 -74l-53 74h-43v-180zM909 1704q0 -39 22.5 -67.5t70.5 -28.5q49 0 72.5 28.5t23.5 67.5q0 45 -27.5 70.5t-68.5 25.5q-39 0 -66 -27.5t-27 -68.5zM940 1704q0 25 15.5 45t46.5 20 q33 0 48 -20t15 -45q0 -27 -14.5 -46.5t-48.5 -19.5q-31 0 -46.5 21.5t-15.5 44.5z" />
<glyph unicode="&#xc9;" horiz-adv-x="1286" d="M191 1534v338h1024v-338h-1024zM215 0v1434h932v-50h-881v-639h819v-49h-819v-647h899v-49h-950zM307 1612h64q47 0 71.5 24.5t24.5 65.5q0 37 -24.5 63.5t-71.5 26.5h-64v-180zM338 1642v117h33q31 0 47 -16.5t16 -40.5q0 -59 -63 -60h-33zM518 1612h127v30h-94v44h94 v32h-94v41h94v33h-127v-180zM697 1612h34v135l62 -80l63 82v-137h33v180h-43l-53 -74l-53 74h-43v-180zM940 1706q0 -39 22.5 -67.5t69.5 -28.5q49 0 73 28.5t24 67.5q0 45 -28 70.5t-69 25.5q-39 0 -65.5 -27.5t-26.5 -68.5zM971 1706q0 25 15.5 45.5t45.5 20.5 q33 0 48.5 -20.5t15.5 -45.5q0 -27 -14.5 -46.5t-49.5 -19.5q-31 0 -46 21.5t-15 44.5z" />
<glyph unicode="&#xca;" horiz-adv-x="1286" d="M137 1534v338h1024v-338h-1024zM215 0v1434h932v-50h-881v-639h819v-49h-819v-647h899v-49h-950zM254 1612h64q47 0 71.5 24.5t24.5 65.5q0 37 -24.5 63.5t-71.5 26.5h-64v-180zM285 1642v117h33q31 0 47 -16.5t16 -40.5q0 -59 -63 -60h-33zM465 1612h127v30h-94v44h94 v32h-94v41h94v33h-127v-180zM643 1612h35v135l61 -80l64 82v-137h33v180h-43l-54 -74l-53 74h-43v-180zM887 1706q0 -39 22.5 -67.5t69.5 -28.5q49 0 72.5 28.5t23.5 67.5q0 45 -27.5 70.5t-68.5 25.5q-39 0 -65.5 -27.5t-26.5 -68.5zM918 1706q0 25 15 45.5t46 20.5 q33 0 48.5 -20.5t15.5 -45.5q0 -27 -14.5 -46.5t-49.5 -19.5q-31 0 -46 21.5t-15 44.5z" />
<glyph unicode="&#xcb;" horiz-adv-x="1286" d="M149 1534v338h1024v-338h-1024zM215 0v1434h932v-50h-881v-639h819v-49h-819v-647h899v-49h-950zM266 1612h63q47 0 72 24.5t25 65.5q0 37 -24.5 63.5t-72.5 26.5h-63v-180zM297 1642v117h32q31 0 47.5 -16.5t16.5 -40.5q0 -59 -64 -60h-32zM477 1612h127v30h-94v44h94 v32h-94v41h94v33h-127v-180zM655 1612h35v135l61 -80l64 82v-137h33v180h-43l-54 -74l-53 74h-43v-180zM899 1706q0 -39 22.5 -67.5t69.5 -28.5q49 0 72.5 28.5t23.5 67.5q0 45 -27.5 70.5t-68.5 25.5q-39 0 -65.5 -27.5t-26.5 -68.5zM929 1706q0 25 15.5 45.5t46.5 20.5 q33 0 48 -20.5t15 -45.5q0 -27 -14 -46.5t-49 -19.5q-31 0 -46.5 21.5t-15.5 44.5z" />
<glyph unicode="&#xcc;" horiz-adv-x="481" d="M-280 1532v338h1024v-338h-1024zM-163 1610h63q47 0 71.5 24.5t24.5 65.5q0 37 -24.5 63.5t-71.5 26.5h-63v-180zM-133 1640v117h33q31 0 47.5 -16.5t16.5 -40.5q0 -59 -64 -60h-33zM48 1610h127v30h-95v43h95v33h-95v41h95v33h-127v-180zM215 0v1434h51v-1434h-51z M226 1610h35v135l61 -80l63 82v-137h33v180h-43l-53 -74l-53 74h-43v-180zM469 1704q0 -39 22.5 -67.5t70.5 -28.5q49 0 72.5 28.5t23.5 67.5q0 45 -27.5 70.5t-68.5 25.5q-39 0 -66 -27.5t-27 -68.5zM500 1704q0 25 15.5 45t46.5 20q33 0 48 -20t15 -45q0 -27 -14.5 -46.5 t-48.5 -19.5q-31 0 -46.5 21.5t-15.5 44.5z" />
<glyph unicode="&#xcd;" horiz-adv-x="481" d="M-250 1534v338h1024v-338h-1024zM-134 1612h64q47 0 71.5 24.5t24.5 65.5q0 37 -24.5 63.5t-71.5 26.5h-64v-180zM-103 1642v117h33q31 0 47 -16.5t16 -40.5q0 -59 -63 -60h-33zM77 1612h127v30h-94v44h94v32h-94v41h94v33h-127v-180zM215 0v1434h51v-1434h-51zM256 1612 h34v135l62 -80l63 82v-137h33v180h-43l-53 -74l-53 74h-43v-180zM499 1706q0 -39 22.5 -67.5t69.5 -28.5q49 0 73 28.5t24 67.5q0 45 -28 70.5t-69 25.5q-39 0 -65.5 -27.5t-26.5 -68.5zM530 1706q0 25 15.5 45.5t45.5 20.5q33 0 48.5 -20.5t15.5 -45.5q0 -27 -14.5 -46.5 t-49.5 -19.5q-31 0 -46 21.5t-15 44.5z" />
<glyph unicode="&#xce;" horiz-adv-x="481" d="M-303 1534v338h1024v-338h-1024zM-186 1612h64q47 0 71.5 24.5t24.5 65.5q0 37 -24.5 63.5t-71.5 26.5h-64v-180zM-155 1642v117h33q31 0 47 -16.5t16 -40.5q0 -59 -63 -60h-33zM25 1612h127v30h-94v44h94v32h-94v41h94v33h-127v-180zM203 1612h35v135l61 -80l64 82v-137 h33v180h-43l-54 -74l-53 74h-43v-180zM215 0v1434h51v-1434h-51zM447 1706q0 -39 22.5 -67.5t69.5 -28.5q49 0 72.5 28.5t23.5 67.5q0 45 -27.5 70.5t-68.5 25.5q-39 0 -65.5 -27.5t-26.5 -68.5zM478 1706q0 25 15 45.5t46 20.5q33 0 48.5 -20.5t15.5 -45.5 q0 -27 -14.5 -46.5t-49.5 -19.5q-31 0 -46 21.5t-15 44.5z" />
<glyph unicode="&#xcf;" horiz-adv-x="481" d="M-291 1534v338h1024v-338h-1024zM-174 1612h63q47 0 72 24.5t25 65.5q0 37 -24.5 63.5t-72.5 26.5h-63v-180zM-143 1642v117h32q31 0 47.5 -16.5t16.5 -40.5q0 -59 -64 -60h-32zM37 1612h127v30h-94v44h94v32h-94v41h94v33h-127v-180zM215 0v1434h51v-1434h-51zM215 1612 h35v135l61 -80l64 82v-137h33v180h-43l-54 -74l-53 74h-43v-180zM459 1706q0 -39 22.5 -67.5t69.5 -28.5q49 0 72.5 28.5t23.5 67.5q0 45 -27.5 70.5t-68.5 25.5q-39 0 -65.5 -27.5t-26.5 -68.5zM489 1706q0 25 15.5 45.5t46.5 20.5q33 0 48 -20.5t15 -45.5q0 -27 -14 -46.5 t-49 -19.5q-31 0 -46.5 21.5t-15.5 44.5z" />
<glyph unicode="&#xd0;" horiz-adv-x="1495" d="M215 0v1434h408q193 0 336 -54.5t238 -149.5t141 -227.5t46 -285.5q0 -154 -46 -286t-141 -227t-238.5 -149.5t-335.5 -54.5h-408zM266 49h357q180 0 314 49t222 138.5t131 212t43 268.5q0 145 -43 268t-131 212t-222 138t-314 49h-357v-1335z" />
<glyph unicode="&#xd1;" horiz-adv-x="1570" d="M215 0v1434h43l1047 -1344v123v1221h51v-1434h-45l-1045 1346v-123v-1223h-51zM237 1534v338h1024v-338h-1024zM354 1612h64q47 0 71.5 24.5t24.5 65.5q0 37 -24.5 63.5t-71.5 26.5h-64v-180zM385 1642v117h33q31 0 47 -16.5t16 -40.5q0 -59 -63 -60h-33zM565 1612h127 v30h-94v44h94v32h-94v41h94v33h-127v-180zM743 1612h35v135l62 -80l63 82v-137h33v180h-43l-53 -74l-54 74h-43v-180zM987 1706q0 -39 22.5 -67.5t69.5 -28.5q49 0 72.5 28.5t23.5 67.5q0 45 -27.5 70.5t-68.5 25.5q-39 0 -65.5 -27.5t-26.5 -68.5zM1018 1706q0 25 15 45.5 t46 20.5q33 0 48.5 -20.5t15.5 -45.5q0 -27 -14.5 -46.5t-49.5 -19.5q-31 0 -46 21.5t-15 44.5z" />
<glyph unicode="&#xd2;" horiz-adv-x="1691" d="M106 717q0 133 46.5 265t138.5 236.5t230 170t325 65.5q186 0 324.5 -65.5t230.5 -170t138 -236.5t46 -265t-46 -265.5t-138 -236.5t-230.5 -169.5t-324.5 -65.5t-324.5 65.5t-230.5 169.5t-138.5 236.5t-46.5 265.5zM158 717q0 -125 43 -248t129 -221t215 -158.5 t301 -60.5t301 60.5t215 158.5t129 221t43 248t-43 247.5t-129 221t-215 159t-301 60.5t-301 -60.5t-215 -159t-129 -221t-43 -247.5zM324 1532v338h1024v-338h-1024zM441 1610h63q47 0 71.5 24.5t24.5 65.5q0 37 -24.5 63.5t-71.5 26.5h-63v-180zM471 1640v117h33 q31 0 47.5 -16.5t16.5 -40.5q0 -59 -64 -60h-33zM652 1610h127v30h-95v43h95v33h-95v41h95v33h-127v-180zM830 1610h35v135l61 -80l63 82v-137h33v180h-43l-53 -74l-53 74h-43v-180zM1073 1704q0 -39 22.5 -67.5t70.5 -28.5q49 0 72.5 28.5t23.5 67.5q0 45 -27.5 70.5 t-68.5 25.5q-39 0 -66 -27.5t-27 -68.5zM1104 1704q0 25 15.5 45t46.5 20q33 0 48 -20t15 -45q0 -27 -14.5 -46.5t-48.5 -19.5q-31 0 -46.5 21.5t-15.5 44.5z" />
<glyph unicode="&#xd3;" horiz-adv-x="1691" d="M106 717q0 133 46.5 265t138.5 236.5t230 170t325 65.5q186 0 324.5 -65.5t230.5 -170t138 -236.5t46 -265t-46 -265.5t-138 -236.5t-230.5 -169.5t-324.5 -65.5t-324.5 65.5t-230.5 169.5t-138.5 236.5t-46.5 265.5zM158 717q0 -125 43 -248t129 -221t215 -158.5 t301 -60.5t301 60.5t215 158.5t129 221t43 248t-43 247.5t-129 221t-215 159t-301 60.5t-301 -60.5t-215 -159t-129 -221t-43 -247.5zM355 1534v338h1024v-338h-1024zM471 1612h64q47 0 71.5 24.5t24.5 65.5q0 37 -24.5 63.5t-71.5 26.5h-64v-180zM502 1642v117h33 q31 0 47 -16.5t16 -40.5q0 -59 -63 -60h-33zM682 1612h127v30h-94v44h94v32h-94v41h94v33h-127v-180zM861 1612h34v135l62 -80l63 82v-137h33v180h-43l-53 -74l-53 74h-43v-180zM1104 1706q0 -39 22.5 -67.5t69.5 -28.5q49 0 73 28.5t24 67.5q0 45 -28 70.5t-69 25.5 q-39 0 -65.5 -27.5t-26.5 -68.5zM1135 1706q0 25 15.5 45.5t45.5 20.5q33 0 48.5 -20.5t15.5 -45.5q0 -27 -14.5 -46.5t-49.5 -19.5q-31 0 -46 21.5t-15 44.5z" />
<glyph unicode="&#xd4;" horiz-adv-x="1691" d="M106 717q0 133 46.5 265t138.5 236.5t230 170t325 65.5q186 0 324.5 -65.5t230.5 -170t138 -236.5t46 -265t-46 -265.5t-138 -236.5t-230.5 -169.5t-324.5 -65.5t-324.5 65.5t-230.5 169.5t-138.5 236.5t-46.5 265.5zM158 717q0 -125 43 -248t129 -221t215 -158.5 t301 -60.5t301 60.5t215 158.5t129 221t43 248t-43 247.5t-129 221t-215 159t-301 60.5t-301 -60.5t-215 -159t-129 -221t-43 -247.5zM301 1534v338h1024v-338h-1024zM418 1612h64q47 0 71.5 24.5t24.5 65.5q0 37 -24.5 63.5t-71.5 26.5h-64v-180zM449 1642v117h33 q31 0 47 -16.5t16 -40.5q0 -59 -63 -60h-33zM629 1612h127v30h-94v44h94v32h-94v41h94v33h-127v-180zM807 1612h35v135l61 -80l64 82v-137h33v180h-43l-54 -74l-53 74h-43v-180zM1051 1706q0 -39 22.5 -67.5t69.5 -28.5q49 0 72.5 28.5t23.5 67.5q0 45 -27.5 70.5 t-68.5 25.5q-39 0 -65.5 -27.5t-26.5 -68.5zM1082 1706q0 25 15 45.5t46 20.5q33 0 48.5 -20.5t15.5 -45.5q0 -27 -14.5 -46.5t-49.5 -19.5q-31 0 -46 21.5t-15 44.5z" />
<glyph unicode="&#xd5;" horiz-adv-x="1691" d="M106 717q0 133 46.5 265t138.5 236.5t230 170t325 65.5q186 0 324.5 -65.5t230.5 -170t138 -236.5t46 -265t-46 -265.5t-138 -236.5t-230.5 -169.5t-324.5 -65.5t-324.5 65.5t-230.5 169.5t-138.5 236.5t-46.5 265.5zM158 717q0 -125 43 -248t129 -221t215 -158.5 t301 -60.5t301 60.5t215 158.5t129 221t43 248t-43 247.5t-129 221t-215 159t-301 60.5t-301 -60.5t-215 -159t-129 -221t-43 -247.5zM299 1534v338h1024v-338h-1024zM416 1612h64q47 0 71.5 24.5t24.5 65.5q0 37 -24.5 63.5t-71.5 26.5h-64v-180zM447 1642v117h33 q31 0 47 -16.5t16 -40.5q0 -59 -63 -60h-33zM627 1612h127v30h-94v44h94v32h-94v41h94v33h-127v-180zM805 1612h35v135l62 -80l63 82v-137h33v180h-43l-53 -74l-54 74h-43v-180zM1049 1706q0 -39 22.5 -67.5t69.5 -28.5q49 0 72.5 28.5t23.5 67.5q0 45 -27.5 70.5 t-68.5 25.5q-39 0 -65.5 -27.5t-26.5 -68.5zM1080 1706q0 25 15 45.5t46 20.5q33 0 48.5 -20.5t15.5 -45.5q0 -27 -14.5 -46.5t-49.5 -19.5q-31 0 -46 21.5t-15 44.5z" />
<glyph unicode="&#xd6;" horiz-adv-x="1691" d="M106 717q0 133 46.5 265t138.5 236.5t230 170t325 65.5q186 0 324.5 -65.5t230.5 -170t138 -236.5t46 -265t-46 -265.5t-138 -236.5t-230.5 -169.5t-324.5 -65.5t-324.5 65.5t-230.5 169.5t-138.5 236.5t-46.5 265.5zM158 717q0 -125 43 -248t129 -221t215 -158.5 t301 -60.5t301 60.5t215 158.5t129 221t43 248t-43 247.5t-129 221t-215 159t-301 60.5t-301 -60.5t-215 -159t-129 -221t-43 -247.5zM313 1534v338h1024v-338h-1024zM430 1612h63q47 0 72 24.5t25 65.5q0 37 -24.5 63.5t-72.5 26.5h-63v-180zM461 1642v117h32 q31 0 47.5 -16.5t16.5 -40.5q0 -59 -64 -60h-32zM641 1612h127v30h-94v44h94v32h-94v41h94v33h-127v-180zM819 1612h35v135l61 -80l64 82v-137h33v180h-43l-54 -74l-53 74h-43v-180zM1063 1706q0 -39 22.5 -67.5t69.5 -28.5q49 0 72.5 28.5t23.5 67.5q0 45 -27.5 70.5 t-68.5 25.5q-39 0 -65.5 -27.5t-26.5 -68.5zM1093 1706q0 25 15.5 45.5t46.5 20.5q33 0 48 -20.5t15 -45.5q0 -27 -14 -46.5t-49 -19.5q-31 0 -46.5 21.5t-15.5 44.5z" />
<glyph unicode="&#xd7;" d="M145 0v1434h476v-1434h-476zM252 1176q0 -53 37 -90t96 -37q47 0 88 30.5t41 96.5t-42 95t-89 32q-47 0 -89 -30.5t-42 -96.5zM258 158h248v98q0 66 -39 95.5t-86 27.5q-47 0 -85 -28.5t-38 -94.5v-98zM258 451h248v184h-43v-137h-57v133h-44v-133h-57v137h-47v-184z M258 715h248v45h-178l108 80v8l-108 84h178v45h-248v-53l109 -80l-109 -76v-53zM297 1176q0 45 28.5 63t59.5 18q31 -4 57.5 -20t26.5 -61t-26.5 -63.5t-57.5 -18.5q-37 -2 -63.5 19.5t-24.5 62.5zM303 203v53q-2 41 23.5 57.5t54.5 20.5q29 0 55.5 -17.5t26.5 -60.5v-53 h-160z" />
<glyph unicode="&#xd8;" horiz-adv-x="1691" d="M106 717q0 133 46.5 265t138.5 236.5t230 170t325 65.5q186 0 324.5 -65.5t230.5 -170t138 -236.5t46 -265t-46 -265.5t-138 -236.5t-230.5 -169.5t-324.5 -65.5t-324.5 65.5t-230.5 169.5t-138.5 236.5t-46.5 265.5zM158 717q0 -125 43 -248t129 -221t215 -158.5 t301 -60.5t301 60.5t215 158.5t129 221t43 248t-43 247.5t-129 221t-215 159t-301 60.5t-301 -60.5t-215 -159t-129 -221t-43 -247.5z" />
<glyph unicode="&#xd9;" horiz-adv-x="1533" d="M197 494v940h51v-938q0 -131 39 -220.5t108.5 -144.5t164.5 -78.5t208 -23.5q111 0 206 23.5t164.5 78.5t108.5 144.5t39 220.5v938h51v-940q0 -143 -44 -241.5t-120.5 -159t-181 -87t-223.5 -26.5q-121 0 -224.5 26.5t-181 87t-121.5 158.5t-44 242zM252 1532v338h1024 v-338h-1024zM369 1610h63q47 0 71.5 24.5t24.5 65.5q0 37 -24.5 63.5t-71.5 26.5h-63v-180zM399 1640v117h33q31 0 47.5 -16.5t16.5 -40.5q0 -59 -64 -60h-33zM580 1610h127v30h-95v43h95v33h-95v41h95v33h-127v-180zM758 1610h35v135l61 -80l63 82v-137h33v180h-43l-53 -74 l-53 74h-43v-180zM1001 1704q0 -39 22.5 -67.5t70.5 -28.5q49 0 72.5 28.5t23.5 67.5q0 45 -27.5 70.5t-68.5 25.5q-39 0 -66 -27.5t-27 -68.5zM1032 1704q0 25 15.5 45t46.5 20q33 0 48 -20t15 -45q0 -27 -14.5 -46.5t-48.5 -19.5q-31 0 -46.5 21.5t-15.5 44.5z" />
<glyph unicode="&#xda;" horiz-adv-x="1533" d="M197 494v940h51v-938q0 -131 39 -220.5t108.5 -144.5t164.5 -78.5t208 -23.5q111 0 206 23.5t164.5 78.5t108.5 144.5t39 220.5v938h51v-940q0 -143 -44 -241.5t-120.5 -159t-181 -87t-223.5 -26.5q-121 0 -224.5 26.5t-181 87t-121.5 158.5t-44 242zM283 1534v338h1024 v-338h-1024zM399 1612h64q47 0 71.5 24.5t24.5 65.5q0 37 -24.5 63.5t-71.5 26.5h-64v-180zM430 1642v117h33q31 0 47 -16.5t16 -40.5q0 -59 -63 -60h-33zM610 1612h127v30h-94v44h94v32h-94v41h94v33h-127v-180zM789 1612h34v135l62 -80l63 82v-137h33v180h-43l-53 -74 l-53 74h-43v-180zM1032 1706q0 -39 22.5 -67.5t69.5 -28.5q49 0 73 28.5t24 67.5q0 45 -28 70.5t-69 25.5q-39 0 -65.5 -27.5t-26.5 -68.5zM1063 1706q0 25 15.5 45.5t45.5 20.5q33 0 48.5 -20.5t15.5 -45.5q0 -27 -14.5 -46.5t-49.5 -19.5q-31 0 -46 21.5t-15 44.5z" />
<glyph unicode="&#xdb;" horiz-adv-x="1533" d="M197 494v940h51v-938q0 -131 39 -220.5t108.5 -144.5t164.5 -78.5t208 -23.5q111 0 206 23.5t164.5 78.5t108.5 144.5t39 220.5v938h51v-940q0 -143 -44 -241.5t-120.5 -159t-181 -87t-223.5 -26.5q-121 0 -224.5 26.5t-181 87t-121.5 158.5t-44 242zM229 1534v338h1024 v-338h-1024zM346 1612h64q47 0 71.5 24.5t24.5 65.5q0 37 -24.5 63.5t-71.5 26.5h-64v-180zM377 1642v117h33q31 0 47 -16.5t16 -40.5q0 -59 -63 -60h-33zM557 1612h127v30h-94v44h94v32h-94v41h94v33h-127v-180zM735 1612h35v135l61 -80l64 82v-137h33v180h-43l-54 -74 l-53 74h-43v-180zM979 1706q0 -39 22.5 -67.5t69.5 -28.5q49 0 72.5 28.5t23.5 67.5q0 45 -27.5 70.5t-68.5 25.5q-39 0 -65.5 -27.5t-26.5 -68.5zM1010 1706q0 25 15 45.5t46 20.5q33 0 48.5 -20.5t15.5 -45.5q0 -27 -14.5 -46.5t-49.5 -19.5q-31 0 -46 21.5t-15 44.5z" />
<glyph unicode="&#xdc;" horiz-adv-x="1533" d="M197 494v940h51v-938q0 -131 39 -220.5t108.5 -144.5t164.5 -78.5t208 -23.5q111 0 206 23.5t164.5 78.5t108.5 144.5t39 220.5v938h51v-940q0 -143 -44 -241.5t-120.5 -159t-181 -87t-223.5 -26.5q-121 0 -224.5 26.5t-181 87t-121.5 158.5t-44 242zM241 1534v338h1024 v-338h-1024zM358 1612h63q47 0 72 24.5t25 65.5q0 37 -24.5 63.5t-72.5 26.5h-63v-180zM389 1642v117h32q31 0 47.5 -16.5t16.5 -40.5q0 -59 -64 -60h-32zM569 1612h127v30h-94v44h94v32h-94v41h94v33h-127v-180zM747 1612h35v135l61 -80l64 82v-137h33v180h-43l-54 -74 l-53 74h-43v-180zM991 1706q0 -39 22.5 -67.5t69.5 -28.5q49 0 72.5 28.5t23.5 67.5q0 45 -27.5 70.5t-68.5 25.5q-39 0 -65.5 -27.5t-26.5 -68.5zM1021 1706q0 25 15.5 45.5t46.5 20.5q33 0 48 -20.5t15 -45.5q0 -27 -14 -46.5t-49 -19.5q-31 0 -46.5 21.5t-15.5 44.5z" />
<glyph unicode="&#xdd;" horiz-adv-x="1280" d="M49 1434h57l533 -803l532 803h58l-563 -852v-582h-52v582zM150 1534v338h1024v-338h-1024zM266 1612h64q47 0 71.5 24.5t24.5 65.5q0 37 -24.5 63.5t-71.5 26.5h-64v-180zM297 1642v117h33q31 0 47 -16.5t16 -40.5q0 -59 -63 -60h-33zM477 1612h127v30h-94v44h94v32h-94 v41h94v33h-127v-180zM656 1612h34v135l62 -80l63 82v-137h33v180h-43l-53 -74l-53 74h-43v-180zM899 1706q0 -39 22.5 -67.5t69.5 -28.5q49 0 73 28.5t24 67.5q0 45 -28 70.5t-69 25.5q-39 0 -65.5 -27.5t-26.5 -68.5zM930 1706q0 25 15.5 45.5t45.5 20.5q33 0 48.5 -20.5 t15.5 -45.5q0 -27 -14.5 -46.5t-49.5 -19.5q-31 0 -46 21.5t-15 44.5z" />
<glyph unicode="&#xde;" horiz-adv-x="1331" d="M215 0v1434h51v-273h393q119 0 227.5 -20.5t190.5 -71.5t131 -137t49 -215t-49 -215t-131 -137.5t-190.5 -72t-227.5 -20.5h-393v-272h-51zM266 322h396q111 0 209 18t172.5 62t118.5 121t44 194t-44 193.5t-117.5 120.5t-173 62.5t-209.5 18.5h-396v-790z" />
<glyph unicode="&#xdf;" horiz-adv-x="1204" d="M172 0v1032q0 100 32 179t88 132.5t135 82t173 28.5q88 0 155.5 -25.5t113.5 -66.5t70 -94.5t24 -104.5q0 -68 -26 -113.5t-56.5 -82.5t-56 -72t-25.5 -80q0 -35 24.5 -67.5t60.5 -68.5t78 -74t77.5 -83t60 -98.5t24.5 -116.5q0 -86 -33.5 -148.5t-91 -102.5t-132 -58 t-156.5 -18q-68 0 -139.5 15t-129.5 50v45q59 -35 128 -50t135 -15q76 0 142 16t117.5 51t81 88t29.5 129q0 59 -24.5 108.5t-60.5 92.5t-78 80t-77.5 72.5t-60 71.5t-24.5 75q0 51 25.5 88t56 74t56 80t25.5 108q0 45 -20.5 90t-60 80t-98 57.5t-134.5 22.5 q-82 0 -151.5 -24.5t-119.5 -71.5t-79 -117t-29 -158v-1038h-49z" />
<glyph unicode="&#xe0;" horiz-adv-x="1103" d="M-8 1081v338h1024v-338h-1024zM82 260q0 86 37 144.5t96 95.5t135 53t154 16q96 0 185 -16t171 -45v106q0 156 -89 250t-265 94q-111 0 -200 -19t-148 -42v49q57 20 145 39t205 19q197 0 299 -105.5t102 -288.5v-467q0 -57 32 -78.5t75 -21.5q41 0 76 14v-43 q-43 -16 -86 -16q-27 0 -53.5 7t-47 24.5t-33 44t-12.5 67.5v74q-72 -115 -190.5 -175t-253.5 -60q-61 0 -122 16t-108 51t-75.5 88t-28.5 125zM109 1159h63q47 0 71.5 24.5t24.5 65.5q0 37 -24.5 63.5t-71.5 26.5h-63v-180zM131 262q0 -61 24.5 -106t66.5 -75t94.5 -44 t107.5 -14q66 0 129 16t120.5 49t105.5 81t81 112v182q-78 29 -168 45t-184 16q-72 0 -139.5 -13t-119.5 -44t-85 -81t-33 -124zM139 1189v117h33q31 0 47.5 -16.5t16.5 -40.5q0 -59 -64 -60h-33zM320 1159h127v30h-95v43h95v33h-95v41h95v33h-127v-180zM498 1159h35v135 l61 -80l63 82v-137h33v180h-43l-53 -74l-53 74h-43v-180zM741 1253q0 -39 22.5 -67.5t70.5 -28.5q49 0 72.5 28.5t23.5 67.5q0 45 -27.5 70.5t-68.5 25.5q-39 0 -66 -27.5t-27 -68.5zM772 1253q0 25 15.5 45t46.5 20q33 0 48 -20t15 -45q0 -27 -14.5 -46.5t-48.5 -19.5 q-31 0 -46.5 21.5t-15.5 44.5z" />
<glyph unicode="&#xe1;" horiz-adv-x="1103" d="M23 1083v338h1024v-338h-1024zM82 260q0 86 37 144.5t96 95.5t135 53t154 16q96 0 185 -16t171 -45v106q0 156 -89 250t-265 94q-111 0 -200 -19t-148 -42v49q57 20 145 39t205 19q197 0 299 -105.5t102 -288.5v-467q0 -57 32 -78.5t75 -21.5q41 0 76 14v-43 q-43 -16 -86 -16q-27 0 -53.5 7t-47 24.5t-33 44t-12.5 67.5v74q-72 -115 -190.5 -175t-253.5 -60q-61 0 -122 16t-108 51t-75.5 88t-28.5 125zM131 262q0 -61 24.5 -106t66.5 -75t94.5 -44t107.5 -14q66 0 129 16t120.5 49t105.5 81t81 112v182q-78 29 -168 45t-184 16 q-72 0 -139.5 -13t-119.5 -44t-85 -81t-33 -124zM139 1161h64q47 0 71.5 24.5t24.5 65.5q0 37 -24.5 63.5t-71.5 26.5h-64v-180zM170 1191v117h33q31 0 47 -16.5t16 -40.5q0 -59 -63 -60h-33zM350 1161h127v30h-94v44h94v32h-94v41h94v33h-127v-180zM529 1161h34v135l62 -80 l63 82v-137h33v180h-43l-53 -74l-53 74h-43v-180zM772 1255q0 -39 22.5 -67.5t69.5 -28.5q49 0 73 28.5t24 67.5q0 45 -28 70.5t-69 25.5q-39 0 -65.5 -27.5t-26.5 -68.5zM803 1255q0 25 15.5 45.5t45.5 20.5q33 0 48.5 -20.5t15.5 -45.5q0 -27 -14.5 -46.5t-49.5 -19.5 q-31 0 -46 21.5t-15 44.5z" />
<glyph unicode="&#xe2;" horiz-adv-x="1103" d="M-31 1083v338h1024v-338h-1024zM82 260q0 86 37 144.5t96 95.5t135 53t154 16q96 0 185 -16t171 -45v106q0 156 -89 250t-265 94q-111 0 -200 -19t-148 -42v49q57 20 145 39t205 19q197 0 299 -105.5t102 -288.5v-467q0 -57 32 -78.5t75 -21.5q41 0 76 14v-43 q-43 -16 -86 -16q-27 0 -53.5 7t-47 24.5t-33 44t-12.5 67.5v74q-72 -115 -190.5 -175t-253.5 -60q-61 0 -122 16t-108 51t-75.5 88t-28.5 125zM86 1161h64q47 0 71.5 24.5t24.5 65.5q0 37 -24.5 63.5t-71.5 26.5h-64v-180zM117 1191v117h33q31 0 47 -16.5t16 -40.5 q0 -59 -63 -60h-33zM131 262q0 -61 24.5 -106t66.5 -75t94.5 -44t107.5 -14q66 0 129 16t120.5 49t105.5 81t81 112v182q-78 29 -168 45t-184 16q-72 0 -139.5 -13t-119.5 -44t-85 -81t-33 -124zM297 1161h127v30h-94v44h94v32h-94v41h94v33h-127v-180zM475 1161h35v135 l61 -80l64 82v-137h33v180h-43l-54 -74l-53 74h-43v-180zM719 1255q0 -39 22.5 -67.5t69.5 -28.5q49 0 72.5 28.5t23.5 67.5q0 45 -27.5 70.5t-68.5 25.5q-39 0 -65.5 -27.5t-26.5 -68.5zM750 1255q0 25 15 45.5t46 20.5q33 0 48.5 -20.5t15.5 -45.5q0 -27 -14.5 -46.5 t-49.5 -19.5q-31 0 -46 21.5t-15 44.5z" />
<glyph unicode="&#xe3;" horiz-adv-x="1103" d="M-33 1083v338h1024v-338h-1024zM82 260q0 86 37 144.5t96 95.5t135 53t154 16q96 0 185 -16t171 -45v106q0 156 -89 250t-265 94q-111 0 -200 -19t-148 -42v49q57 20 145 39t205 19q197 0 299 -105.5t102 -288.5v-467q0 -57 32 -78.5t75 -21.5q41 0 76 14v-43 q-43 -16 -86 -16q-27 0 -53.5 7t-47 24.5t-33 44t-12.5 67.5v74q-72 -115 -190.5 -175t-253.5 -60q-61 0 -122 16t-108 51t-75.5 88t-28.5 125zM84 1161h64q47 0 71.5 24.5t24.5 65.5q0 37 -24.5 63.5t-71.5 26.5h-64v-180zM115 1191v117h33q31 0 47 -16.5t16 -40.5 q0 -59 -63 -60h-33zM131 262q0 -61 24.5 -106t66.5 -75t94.5 -44t107.5 -14q66 0 129 16t120.5 49t105.5 81t81 112v182q-78 29 -168 45t-184 16q-72 0 -139.5 -13t-119.5 -44t-85 -81t-33 -124zM295 1161h127v30h-94v44h94v32h-94v41h94v33h-127v-180zM473 1161h35v135 l62 -80l63 82v-137h33v180h-43l-53 -74l-54 74h-43v-180zM717 1255q0 -39 22.5 -67.5t69.5 -28.5q49 0 72.5 28.5t23.5 67.5q0 45 -27.5 70.5t-68.5 25.5q-39 0 -65.5 -27.5t-26.5 -68.5zM748 1255q0 25 15 45.5t46 20.5q33 0 48.5 -20.5t15.5 -45.5q0 -27 -14.5 -46.5 t-49.5 -19.5q-31 0 -46 21.5t-15 44.5z" />
<glyph unicode="&#xe4;" horiz-adv-x="1103" d="M-19 1083v338h1024v-338h-1024zM82 260q0 86 37 144.5t96 95.5t135 53t154 16q96 0 185 -16t171 -45v106q0 156 -89 250t-265 94q-111 0 -200 -19t-148 -42v49q57 20 145 39t205 19q197 0 299 -105.5t102 -288.5v-467q0 -57 32 -78.5t75 -21.5q41 0 76 14v-43 q-43 -16 -86 -16q-27 0 -53.5 7t-47 24.5t-33 44t-12.5 67.5v74q-72 -115 -190.5 -175t-253.5 -60q-61 0 -122 16t-108 51t-75.5 88t-28.5 125zM98 1161h63q47 0 72 24.5t25 65.5q0 37 -24.5 63.5t-72.5 26.5h-63v-180zM129 1191v117h32q31 0 47.5 -16.5t16.5 -40.5 q0 -59 -64 -60h-32zM131 262q0 -61 24.5 -106t66.5 -75t94.5 -44t107.5 -14q66 0 129 16t120.5 49t105.5 81t81 112v182q-78 29 -168 45t-184 16q-72 0 -139.5 -13t-119.5 -44t-85 -81t-33 -124zM309 1161h127v30h-94v44h94v32h-94v41h94v33h-127v-180zM487 1161h35v135 l61 -80l64 82v-137h33v180h-43l-54 -74l-53 74h-43v-180zM731 1255q0 -39 22.5 -67.5t69.5 -28.5q49 0 72.5 28.5t23.5 67.5q0 45 -27.5 70.5t-68.5 25.5q-39 0 -65.5 -27.5t-26.5 -68.5zM761 1255q0 25 15.5 45.5t46.5 20.5q33 0 48 -20.5t15 -45.5q0 -27 -14 -46.5 t-49 -19.5q-31 0 -46.5 21.5t-15.5 44.5z" />
<glyph unicode="&#xe5;" horiz-adv-x="1103" d="M-27 1083v338h1024v-338h-1024zM82 260q0 86 37 144.5t96 95.5t135 53t154 16q96 0 185 -16t171 -45v106q0 156 -89 250t-265 94q-111 0 -200 -19t-148 -42v49q57 20 145 39t205 19q197 0 299 -105.5t102 -288.5v-467q0 -57 32 -78.5t75 -21.5q41 0 76 14v-43 q-43 -16 -86 -16q-27 0 -53.5 7t-47 24.5t-33 44t-12.5 67.5v74q-72 -115 -190.5 -175t-253.5 -60q-61 0 -122 16t-108 51t-75.5 88t-28.5 125zM90 1161h63q47 0 72 24.5t25 65.5q0 37 -25 63.5t-72 26.5h-63v-180zM121 1191v117h32q31 0 47.5 -16.5t16.5 -40.5 q0 -59 -64 -60h-32zM131 262q0 -61 24.5 -106t66.5 -75t94.5 -44t107.5 -14q66 0 129 16t120.5 49t105.5 81t81 112v182q-78 29 -168 45t-184 16q-72 0 -139.5 -13t-119.5 -44t-85 -81t-33 -124zM301 1161h127v30h-94v44h94v32h-94v41h94v33h-127v-180zM479 1161h35v135 l61 -80l64 82v-137h32v180h-43l-53 -74l-53 74h-43v-180zM723 1255q0 -39 22.5 -67.5t69.5 -28.5q49 0 72.5 28.5t23.5 67.5q0 45 -27.5 70.5t-68.5 25.5q-39 0 -65.5 -27.5t-26.5 -68.5zM753 1255q0 25 15.5 45.5t46.5 20.5q33 0 48 -20.5t15 -45.5q0 -27 -14 -46.5 t-49 -19.5q-31 0 -46.5 21.5t-15.5 44.5z" />
<glyph unicode="&#xe6;" d="M145 0v1434h476v-1434h-476zM252 1176q0 -53 37 -90t96 -37q47 0 88 30.5t41 96.5t-42 95t-89 32q-47 0 -89 -30.5t-42 -96.5zM258 158h248v98q0 66 -39 95.5t-86 27.5q-47 0 -85 -28.5t-38 -94.5v-98zM258 451h248v184h-43v-137h-57v133h-44v-133h-57v137h-47v-184z M258 715h248v45h-178l108 80v8l-108 84h178v45h-248v-53l109 -80l-109 -76v-53zM297 1176q0 45 28.5 63t59.5 18q31 -4 57.5 -20t26.5 -61t-26.5 -63.5t-57.5 -18.5q-37 -2 -63.5 19.5t-24.5 62.5zM303 203v53q-2 41 23.5 57.5t54.5 20.5q29 0 55.5 -17.5t26.5 -60.5v-53 h-160z" />
<glyph unicode="&#xe7;" horiz-adv-x="1009" d="M100 483q0 137 46.5 235.5t122 162t169.5 93.5t191 30q72 0 147.5 -18.5t138.5 -61.5v-47q-59 41 -134.5 61t-147.5 20q-90 0 -176 -27.5t-155 -85t-110.5 -147.5t-41.5 -215q0 -117 38.5 -203.5t103 -143t146.5 -84t170 -27.5q84 0 166 19t152 60v-49q-72 -41 -154 -58 t-168 -17q-94 0 -185 29.5t-162 91t-114 156.5t-43 226z" />
<glyph unicode="&#xe8;" horiz-adv-x="1116" d="M55 1081v338h1024v-338h-1024zM100 492q0 123 41 219t107.5 160.5t152.5 98.5t179 34q135 0 226 -52.5t142 -132.5t67.5 -175t2.5 -181h-868q2 -117 45 -200t110.5 -136t154.5 -77.5t181 -24.5q86 0 170 20.5t147 56.5v-49q-63 -37 -148 -55t-175 -18q-104 0 -200.5 29.5 t-171.5 91t-119 159t-44 232.5zM150 508h825q6 72 -9.5 150.5t-61.5 145t-125 110.5t-197 44q-84 0 -161 -29.5t-136.5 -86t-96 -140.5t-38.5 -194zM172 1159h63q47 0 71.5 24.5t24.5 65.5q0 37 -24.5 63.5t-71.5 26.5h-63v-180zM202 1189v117h33q31 0 47.5 -16.5 t16.5 -40.5q0 -59 -64 -60h-33zM383 1159h127v30h-95v43h95v33h-95v41h95v33h-127v-180zM561 1159h35v135l61 -80l63 82v-137h33v180h-43l-53 -74l-53 74h-43v-180zM804 1253q0 -39 22.5 -67.5t70.5 -28.5q49 0 72.5 28.5t23.5 67.5q0 45 -27.5 70.5t-68.5 25.5 q-39 0 -66 -27.5t-27 -68.5zM835 1253q0 25 15.5 45t46.5 20q33 0 48 -20t15 -45q0 -27 -14.5 -46.5t-48.5 -19.5q-31 0 -46.5 21.5t-15.5 44.5z" />
<glyph unicode="&#xe9;" horiz-adv-x="1116" d="M86 1083v338h1024v-338h-1024zM100 492q0 123 41 219t107.5 160.5t152.5 98.5t179 34q135 0 226 -52.5t142 -132.5t67.5 -175t2.5 -181h-868q2 -117 45 -200t110.5 -136t154.5 -77.5t181 -24.5q86 0 170 20.5t147 56.5v-49q-63 -37 -148 -55t-175 -18q-104 0 -200.5 29.5 t-171.5 91t-119 159t-44 232.5zM150 508h825q6 72 -9.5 150.5t-61.5 145t-125 110.5t-197 44q-84 0 -161 -29.5t-136.5 -86t-96 -140.5t-38.5 -194zM202 1161h64q47 0 71.5 24.5t24.5 65.5q0 37 -24.5 63.5t-71.5 26.5h-64v-180zM233 1191v117h33q31 0 47 -16.5t16 -40.5 q0 -59 -63 -60h-33zM413 1161h127v30h-94v44h94v32h-94v41h94v33h-127v-180zM592 1161h34v135l62 -80l63 82v-137h33v180h-43l-53 -74l-53 74h-43v-180zM835 1255q0 -39 22.5 -67.5t69.5 -28.5q49 0 73 28.5t24 67.5q0 45 -28 70.5t-69 25.5q-39 0 -65.5 -27.5t-26.5 -68.5z M866 1255q0 25 15.5 45.5t45.5 20.5q33 0 48.5 -20.5t15.5 -45.5q0 -27 -14.5 -46.5t-49.5 -19.5q-31 0 -46 21.5t-15 44.5z" />
<glyph unicode="&#xea;" horiz-adv-x="1116" d="M32 1083v338h1024v-338h-1024zM100 492q0 123 41 219t107.5 160.5t152.5 98.5t179 34q135 0 226 -52.5t142 -132.5t67.5 -175t2.5 -181h-868q2 -117 45 -200t110.5 -136t154.5 -77.5t181 -24.5q86 0 170 20.5t147 56.5v-49q-63 -37 -148 -55t-175 -18q-104 0 -200.5 29.5 t-171.5 91t-119 159t-44 232.5zM149 1161h64q47 0 71.5 24.5t24.5 65.5q0 37 -24.5 63.5t-71.5 26.5h-64v-180zM150 508h825q6 72 -9.5 150.5t-61.5 145t-125 110.5t-197 44q-84 0 -161 -29.5t-136.5 -86t-96 -140.5t-38.5 -194zM180 1191v117h33q31 0 47 -16.5t16 -40.5 q0 -59 -63 -60h-33zM360 1161h127v30h-94v44h94v32h-94v41h94v33h-127v-180zM538 1161h35v135l61 -80l64 82v-137h33v180h-43l-54 -74l-53 74h-43v-180zM782 1255q0 -39 22.5 -67.5t69.5 -28.5q49 0 72.5 28.5t23.5 67.5q0 45 -27.5 70.5t-68.5 25.5q-39 0 -65.5 -27.5 t-26.5 -68.5zM813 1255q0 25 15 45.5t46 20.5q33 0 48.5 -20.5t15.5 -45.5q0 -27 -14.5 -46.5t-49.5 -19.5q-31 0 -46 21.5t-15 44.5z" />
<glyph unicode="&#xeb;" horiz-adv-x="1116" d="M45 1083v338h1024v-338h-1024zM100 492q0 123 41 219t107.5 160.5t152.5 98.5t179 34q135 0 226 -52.5t142 -132.5t67.5 -175t2.5 -181h-868q2 -117 45 -200t110.5 -136t154.5 -77.5t181 -24.5q86 0 170 20.5t147 56.5v-49q-63 -37 -148 -55t-175 -18q-104 0 -200.5 29.5 t-171.5 91t-119 159t-44 232.5zM150 508h825q6 72 -9.5 150.5t-61.5 145t-125 110.5t-197 44q-84 0 -161 -29.5t-136.5 -86t-96 -140.5t-38.5 -194zM162 1161h63q47 0 72 24.5t25 65.5q0 37 -24.5 63.5t-72.5 26.5h-63v-180zM193 1191v117h32q31 0 47.5 -16.5t16.5 -40.5 q0 -59 -64 -60h-32zM373 1161h127v30h-94v44h94v32h-94v41h94v33h-127v-180zM551 1161h35v135l61 -80l64 82v-137h33v180h-43l-54 -74l-53 74h-43v-180zM795 1255q0 -39 22.5 -67.5t69.5 -28.5q49 0 72.5 28.5t23.5 67.5q0 45 -27.5 70.5t-68.5 25.5q-39 0 -65.5 -27.5 t-26.5 -68.5zM825 1255q0 25 15.5 45.5t46.5 20.5q33 0 48 -20.5t15 -45.5q0 -27 -14 -46.5t-49 -19.5q-31 0 -46.5 21.5t-15.5 44.5z" />
<glyph unicode="&#xec;" horiz-adv-x="407" d="M180 0v983h49v-983h-49z" />
<glyph unicode="&#xed;" horiz-adv-x="407" d="M-288 1083v338h1024v-338h-1024zM-172 1161h64q47 0 71.5 24.5t24.5 65.5q0 37 -24.5 63.5t-71.5 26.5h-64v-180zM-141 1191v117h33q31 0 47 -16.5t16 -40.5q0 -59 -63 -60h-33zM39 1161h127v30h-94v44h94v32h-94v41h94v33h-127v-180zM178 0v983h49v-983h-49zM218 1161 h34v135l62 -80l63 82v-137h33v180h-43l-53 -74l-53 74h-43v-180zM461 1255q0 -39 22.5 -67.5t69.5 -28.5q49 0 73 28.5t24 67.5q0 45 -28 70.5t-69 25.5q-39 0 -65.5 -27.5t-26.5 -68.5zM492 1255q0 25 15.5 45.5t45.5 20.5q33 0 48.5 -20.5t15.5 -45.5q0 -27 -14.5 -46.5 t-49.5 -19.5q-31 0 -46 21.5t-15 44.5z" />
<glyph unicode="&#xee;" horiz-adv-x="409" d="M180 0v983h49v-983h-49z" />
<glyph unicode="&#xef;" horiz-adv-x="409" d="M180 0v983h49v-983h-49z" />
<glyph unicode="&#xf0;" horiz-adv-x="1220" d="M100 459q0 102 38 187t103.5 145.5t152.5 94.5t184 34q78 0 155.5 -24t143 -72t112.5 -120.5t64 -171.5q2 12 1 24.5t-1 25.5q-4 168 -47 291.5t-112 213t-156 146.5t-177 90l-244 -244l-30 31l229 227q-86 29 -166 39t-143 10v48q72 0 162 -12.5t184 -47.5l172 174 l31 -30l-160 -162q94 -37 185 -101.5t162 -162t114 -232.5t43 -315q0 -129 -37 -233.5t-102.5 -178.5t-158.5 -113.5t-206 -39.5q-109 0 -199 33.5t-156.5 96t-103.5 150.5t-37 199zM150 459q0 -100 32.5 -180t92 -136.5t141.5 -86t180 -29.5q180 0 295 103t147 278 q-2 119 -42 205.5t-104.5 144t-145 86t-164.5 28.5q-88 0 -167 -29.5t-137.5 -83.5t-93 -131t-34.5 -169z" />
<glyph unicode="&#xf1;" horiz-adv-x="1175" d="M36 1083v338h1024v-338h-1024zM153 1161h64q47 0 71.5 24.5t24.5 65.5q0 37 -24.5 63.5t-71.5 26.5h-64v-180zM172 0v983h45v-221q25 39 63.5 81t92 77.5t119 59.5t145.5 24t149.5 -27t120.5 -78t81 -126t30 -169v-604h-49v600q0 86 -25.5 153.5t-72 112.5t-108 68.5 t-130.5 23.5q-78 0 -143.5 -24.5t-116.5 -62t-89 -85t-63 -92.5v-694h-49zM184 1191v117h33q31 0 47 -16.5t16 -40.5q0 -59 -63 -60h-33zM364 1161h127v30h-94v44h94v32h-94v41h94v33h-127v-180zM542 1161h35v135l62 -80l63 82v-137h33v180h-43l-53 -74l-54 74h-43v-180z M786 1255q0 -39 22.5 -67.5t69.5 -28.5q49 0 72.5 28.5t23.5 67.5q0 45 -27.5 70.5t-68.5 25.5q-39 0 -65.5 -27.5t-26.5 -68.5zM817 1255q0 25 15 45.5t46 20.5q33 0 48.5 -20.5t15.5 -45.5q0 -27 -14.5 -46.5t-49.5 -19.5q-31 0 -46 21.5t-15 44.5z" />
<glyph unicode="&#xf2;" horiz-adv-x="1212" d="M84 1065v338h1024v-338h-1024zM100 492q0 123 42 218t112 160.5t162 99.5t190 34q100 0 191.5 -34t161 -99.5t111.5 -161t42 -217.5q0 -123 -42 -218.5t-111.5 -161t-160.5 -99t-192 -33.5q-98 0 -190 33.5t-162 99t-112 161t-42 218.5zM150 492q0 -111 36.5 -198 t100 -146.5t145.5 -90t174 -30.5t174 30.5t145.5 90t100.5 146.5t37 198t-37 197.5t-100.5 146t-145.5 90t-174 30.5t-174 -30.5t-145.5 -90t-100 -146.5t-36.5 -197zM201 1143h63q47 0 71.5 24.5t24.5 65.5q0 37 -24.5 63.5t-71.5 26.5h-63v-180zM231 1173v117h33 q31 0 47.5 -16.5t16.5 -40.5q0 -59 -64 -60h-33zM412 1143h127v30h-95v43h95v33h-95v41h95v33h-127v-180zM590 1143h35v135l61 -80l63 82v-137h33v180h-43l-53 -74l-53 74h-43v-180zM833 1237q0 -39 22.5 -67.5t70.5 -28.5q49 0 72.5 28.5t23.5 67.5q0 45 -27.5 70.5 t-68.5 25.5q-39 0 -66 -27.5t-27 -68.5zM864 1237q0 25 15.5 45t46.5 20q33 0 48 -20t15 -45q0 -27 -14.5 -46.5t-48.5 -19.5q-31 0 -46.5 21.5t-15.5 44.5z" />
<glyph unicode="&#xf3;" horiz-adv-x="1212" d="M100 492q0 123 42 218t112 160.5t162 99.5t190 34q100 0 191.5 -34t161 -99.5t111.5 -161t42 -217.5q0 -123 -42 -218.5t-111.5 -161t-160.5 -99t-192 -33.5q-98 0 -190 33.5t-162 99t-112 161t-42 218.5zM115 1067v338h1024v-338h-1024zM150 492q0 -111 36.5 -198 t100 -146.5t145.5 -90t174 -30.5t174 30.5t145.5 90t100.5 146.5t37 198t-37 197.5t-100.5 146t-145.5 90t-174 30.5t-174 -30.5t-145.5 -90t-100 -146.5t-36.5 -197zM231 1145h64q47 0 71.5 24.5t24.5 65.5q0 37 -24.5 63.5t-71.5 26.5h-64v-180zM262 1175v117h33 q31 0 47 -16.5t16 -40.5q0 -59 -63 -60h-33zM442 1145h127v30h-94v44h94v32h-94v41h94v33h-127v-180zM621 1145h34v135l62 -80l63 82v-137h33v180h-43l-53 -74l-53 74h-43v-180zM864 1239q0 -39 22.5 -67.5t69.5 -28.5q49 0 73 28.5t24 67.5q0 45 -28 70.5t-69 25.5 q-39 0 -65.5 -27.5t-26.5 -68.5zM895 1239q0 25 15.5 45.5t45.5 20.5q33 0 48.5 -20.5t15.5 -45.5q0 -27 -14.5 -46.5t-49.5 -19.5q-31 0 -46 21.5t-15 44.5z" />
<glyph unicode="&#xf4;" horiz-adv-x="1212" d="M61 1067v338h1024v-338h-1024zM100 492q0 123 42 218t112 160.5t162 99.5t190 34q100 0 191.5 -34t161 -99.5t111.5 -161t42 -217.5q0 -123 -42 -218.5t-111.5 -161t-160.5 -99t-192 -33.5q-98 0 -190 33.5t-162 99t-112 161t-42 218.5zM150 492q0 -111 36.5 -198 t100 -146.5t145.5 -90t174 -30.5t174 30.5t145.5 90t100.5 146.5t37 198t-37 197.5t-100.5 146t-145.5 90t-174 30.5t-174 -30.5t-145.5 -90t-100 -146.5t-36.5 -197zM178 1145h64q47 0 71.5 24.5t24.5 65.5q0 37 -24.5 63.5t-71.5 26.5h-64v-180zM209 1175v117h33 q31 0 47 -16.5t16 -40.5q0 -59 -63 -60h-33zM389 1145h127v30h-94v44h94v32h-94v41h94v33h-127v-180zM567 1145h35v135l61 -80l64 82v-137h33v180h-43l-54 -74l-53 74h-43v-180zM811 1239q0 -39 22.5 -67.5t69.5 -28.5q49 0 72.5 28.5t23.5 67.5q0 45 -27.5 70.5t-68.5 25.5 q-39 0 -65.5 -27.5t-26.5 -68.5zM842 1239q0 25 15 45.5t46 20.5q33 0 48.5 -20.5t15.5 -45.5q0 -27 -14.5 -46.5t-49.5 -19.5q-31 0 -46 21.5t-15 44.5z" />
<glyph unicode="&#xf5;" horiz-adv-x="1212" d="M59 1067v338h1024v-338h-1024zM100 492q0 123 42 218t112 160.5t162 99.5t190 34q100 0 191.5 -34t161 -99.5t111.5 -161t42 -217.5q0 -123 -42 -218.5t-111.5 -161t-160.5 -99t-192 -33.5q-98 0 -190 33.5t-162 99t-112 161t-42 218.5zM150 492q0 -111 36.5 -198 t100 -146.5t145.5 -90t174 -30.5t174 30.5t145.5 90t100.5 146.5t37 198t-37 197.5t-100.5 146t-145.5 90t-174 30.5t-174 -30.5t-145.5 -90t-100 -146.5t-36.5 -197zM176 1145h64q47 0 71.5 24.5t24.5 65.5q0 37 -24.5 63.5t-71.5 26.5h-64v-180zM207 1175v117h33 q31 0 47 -16.5t16 -40.5q0 -59 -63 -60h-33zM387 1145h127v30h-94v44h94v32h-94v41h94v33h-127v-180zM565 1145h35v135l62 -80l63 82v-137h33v180h-43l-53 -74l-54 74h-43v-180zM809 1239q0 -39 22.5 -67.5t69.5 -28.5q49 0 72.5 28.5t23.5 67.5q0 45 -27.5 70.5t-68.5 25.5 q-39 0 -65.5 -27.5t-26.5 -68.5zM840 1239q0 25 15 45.5t46 20.5q33 0 48.5 -20.5t15.5 -45.5q0 -27 -14.5 -46.5t-49.5 -19.5q-31 0 -46 21.5t-15 44.5z" />
<glyph unicode="&#xf6;" horiz-adv-x="1212" d="M74 1067v338h1024v-338h-1024zM100 492q0 123 42 218t112 160.5t162 99.5t190 34q100 0 191.5 -34t161 -99.5t111.5 -161t42 -217.5q0 -123 -42 -218.5t-111.5 -161t-160.5 -99t-192 -33.5q-98 0 -190 33.5t-162 99t-112 161t-42 218.5zM150 492q0 -111 36.5 -198 t100 -146.5t145.5 -90t174 -30.5t174 30.5t145.5 90t100.5 146.5t37 198t-37 197.5t-100.5 146t-145.5 90t-174 30.5t-174 -30.5t-145.5 -90t-100 -146.5t-36.5 -197zM191 1145h63q47 0 72 24.5t25 65.5q0 37 -24.5 63.5t-72.5 26.5h-63v-180zM222 1175v117h32 q31 0 47.5 -16.5t16.5 -40.5q0 -59 -64 -60h-32zM402 1145h127v30h-94v44h94v32h-94v41h94v33h-127v-180zM580 1145h35v135l61 -80l64 82v-137h33v180h-43l-54 -74l-53 74h-43v-180zM824 1239q0 -39 22.5 -67.5t69.5 -28.5q49 0 72.5 28.5t23.5 67.5q0 45 -27.5 70.5 t-68.5 25.5q-39 0 -65.5 -27.5t-26.5 -68.5zM854 1239q0 25 15.5 45.5t46.5 20.5q33 0 48 -20.5t15 -45.5q0 -27 -14 -46.5t-49 -19.5q-31 0 -46.5 21.5t-15.5 44.5z" />
<glyph unicode="&#xf7;" d="M145 0v1434h476v-1434h-476zM252 1176q0 -53 37 -90t96 -37q47 0 88 30.5t41 96.5t-42 95t-89 32q-47 0 -89 -30.5t-42 -96.5zM258 158h248v98q0 66 -39 95.5t-86 27.5q-47 0 -85 -28.5t-38 -94.5v-98zM258 451h248v184h-43v-137h-57v133h-44v-133h-57v137h-47v-184z M258 715h248v45h-178l108 80v8l-108 84h178v45h-248v-53l109 -80l-109 -76v-53zM297 1176q0 45 28.5 63t59.5 18q31 -4 57.5 -20t26.5 -61t-26.5 -63.5t-57.5 -18.5q-37 -2 -63.5 19.5t-24.5 62.5zM303 203v53q-2 41 23.5 57.5t54.5 20.5q29 0 55.5 -17.5t26.5 -60.5v-53 h-160z" />
<glyph unicode="&#xf8;" horiz-adv-x="1212" d="M100 492q0 123 42 218t112 160.5t162 99.5t190 34q100 0 191.5 -34t161 -99.5t111.5 -161t42 -217.5q0 -123 -42 -218.5t-111.5 -161t-160.5 -99t-192 -33.5q-98 0 -190 33.5t-162 99t-112 161t-42 218.5zM150 492q0 -111 36.5 -198t100 -146.5t145.5 -90t174 -30.5 t174 30.5t145.5 90t100.5 146.5t37 198t-37 197.5t-100.5 146t-145.5 90t-174 30.5t-174 -30.5t-145.5 -90t-100 -146.5t-36.5 -197z" />
<glyph unicode="&#xf9;" horiz-adv-x="1175" d="M74 1081v338h1024v-338h-1024zM158 379v604h49v-600q0 -86 25.5 -153.5t70.5 -112.5t106.5 -68.5t133.5 -23.5q78 0 143.5 24.5t116.5 62.5t89 85t62 92v694h50v-983h-46v221q-25 -39 -63.5 -81t-91.5 -77.5t-119 -59t-145 -23.5q-82 0 -152 26.5t-121 77.5t-79.5 126 t-28.5 169zM191 1159h63q47 0 71.5 24.5t24.5 65.5q0 37 -24.5 63.5t-71.5 26.5h-63v-180zM221 1189v117h33q31 0 47.5 -16.5t16.5 -40.5q0 -59 -64 -60h-33zM402 1159h127v30h-95v43h95v33h-95v41h95v33h-127v-180zM580 1159h35v135l61 -80l63 82v-137h33v180h-43l-53 -74 l-53 74h-43v-180zM823 1253q0 -39 22.5 -67.5t70.5 -28.5q49 0 72.5 28.5t23.5 67.5q0 45 -27.5 70.5t-68.5 25.5q-39 0 -66 -27.5t-27 -68.5zM854 1253q0 25 15.5 45t46.5 20q33 0 48 -20t15 -45q0 -27 -14.5 -46.5t-48.5 -19.5q-31 0 -46.5 21.5t-15.5 44.5z" />
<glyph unicode="&#xfa;" horiz-adv-x="1175" d="M105 1083v338h1024v-338h-1024zM158 379v604h49v-600q0 -86 25.5 -153.5t70.5 -112.5t106.5 -68.5t133.5 -23.5q78 0 143.5 24.5t116.5 62.5t89 85t62 92v694h50v-983h-46v221q-25 -39 -63.5 -81t-91.5 -77.5t-119 -59t-145 -23.5q-82 0 -152 26.5t-121 77.5t-79.5 126 t-28.5 169zM221 1161h64q47 0 71.5 24.5t24.5 65.5q0 37 -24.5 63.5t-71.5 26.5h-64v-180zM252 1191v117h33q31 0 47 -16.5t16 -40.5q0 -59 -63 -60h-33zM432 1161h127v30h-94v44h94v32h-94v41h94v33h-127v-180zM611 1161h34v135l62 -80l63 82v-137h33v180h-43l-53 -74 l-53 74h-43v-180zM854 1255q0 -39 22.5 -67.5t69.5 -28.5q49 0 73 28.5t24 67.5q0 45 -28 70.5t-69 25.5q-39 0 -65.5 -27.5t-26.5 -68.5zM885 1255q0 25 15.5 45.5t45.5 20.5q33 0 48.5 -20.5t15.5 -45.5q0 -27 -14.5 -46.5t-49.5 -19.5q-31 0 -46 21.5t-15 44.5z" />
<glyph unicode="&#xfb;" horiz-adv-x="1175" d="M51 1083v338h1024v-338h-1024zM158 379v604h49v-600q0 -86 25.5 -153.5t70.5 -112.5t106.5 -68.5t133.5 -23.5q78 0 143.5 24.5t116.5 62.5t89 85t62 92v694h50v-983h-46v221q-25 -39 -63.5 -81t-91.5 -77.5t-119 -59t-145 -23.5q-82 0 -152 26.5t-121 77.5t-79.5 126 t-28.5 169zM168 1161h64q47 0 71.5 24.5t24.5 65.5q0 37 -24.5 63.5t-71.5 26.5h-64v-180zM199 1191v117h33q31 0 47 -16.5t16 -40.5q0 -59 -63 -60h-33zM379 1161h127v30h-94v44h94v32h-94v41h94v33h-127v-180zM557 1161h35v135l61 -80l64 82v-137h33v180h-43l-54 -74 l-53 74h-43v-180zM801 1255q0 -39 22.5 -67.5t69.5 -28.5q49 0 72.5 28.5t23.5 67.5q0 45 -27.5 70.5t-68.5 25.5q-39 0 -65.5 -27.5t-26.5 -68.5zM832 1255q0 25 15 45.5t46 20.5q33 0 48.5 -20.5t15.5 -45.5q0 -27 -14.5 -46.5t-49.5 -19.5q-31 0 -46 21.5t-15 44.5z" />
<glyph unicode="&#xfc;" horiz-adv-x="1175" d="M63 1083v338h1024v-338h-1024zM158 379v604h49v-600q0 -86 25.5 -153.5t70.5 -112.5t106.5 -68.5t133.5 -23.5q78 0 143.5 24.5t116.5 62.5t89 85t62 92v694h50v-983h-46v221q-25 -39 -63.5 -81t-91.5 -77.5t-119 -59t-145 -23.5q-82 0 -152 26.5t-121 77.5t-79.5 126 t-28.5 169zM180 1161h63q47 0 72 24.5t25 65.5q0 37 -24.5 63.5t-72.5 26.5h-63v-180zM211 1191v117h32q31 0 47.5 -16.5t16.5 -40.5q0 -59 -64 -60h-32zM391 1161h127v30h-94v44h94v32h-94v41h94v33h-127v-180zM569 1161h35v135l61 -80l64 82v-137h33v180h-43l-54 -74 l-53 74h-43v-180zM813 1255q0 -39 22.5 -67.5t69.5 -28.5q49 0 72.5 28.5t23.5 67.5q0 45 -27.5 70.5t-68.5 25.5q-39 0 -65.5 -27.5t-26.5 -68.5zM843 1255q0 25 15.5 45.5t46.5 20.5q33 0 48 -20.5t15 -45.5q0 -27 -14 -46.5t-49 -19.5q-31 0 -46.5 21.5t-15.5 44.5z" />
<glyph unicode="&#xfd;" horiz-adv-x="1085" d="M35 983h53l479 -932l418 932h53l-522 -1163q-37 -82 -73.5 -137.5t-76.5 -89t-83 -49t-93 -15.5q-49 0 -100 12v45q49 -12 96 -12q92 0 161 63.5t128 204.5l68 154zM37 1083v338h1024v-338h-1024zM153 1161h64q47 0 71.5 24.5t24.5 65.5q0 37 -24.5 63.5t-71.5 26.5h-64 v-180zM184 1191v117h33q31 0 47 -16.5t16 -40.5q0 -59 -63 -60h-33zM364 1161h127v30h-94v44h94v32h-94v41h94v33h-127v-180zM543 1161h34v135l62 -80l63 82v-137h33v180h-43l-53 -74l-53 74h-43v-180zM786 1255q0 -39 22.5 -67.5t69.5 -28.5q49 0 73 28.5t24 67.5 q0 45 -28 70.5t-69 25.5q-39 0 -65.5 -27.5t-26.5 -68.5zM817 1255q0 25 15.5 45.5t45.5 20.5q33 0 48.5 -20.5t15.5 -45.5q0 -27 -14.5 -46.5t-49.5 -19.5q-31 0 -46 21.5t-15 44.5z" />
<glyph unicode="&#xfe;" horiz-adv-x="1255" d="M172 -451v1885h49v-703q29 57 73 106.5t101.5 86.5t126 58.5t146.5 21.5q104 0 193 -36t154.5 -102.5t102.5 -161t37 -212.5q0 -119 -37 -213.5t-102.5 -161t-154.5 -102t-193 -35.5q-78 0 -146.5 21.5t-126 58t-101.5 86t-73 106.5v-703h-49zM221 342q23 -66 65 -124 t99 -101t128 -67.5t151 -24.5q94 0 175 31.5t140 92t93 146.5t34 197q0 109 -34 195.5t-92 147t-140 92t-176 31.5q-80 0 -151 -24.5t-128 -67.5t-99 -101t-65 -124v-299z" />
<glyph unicode="&#xff;" horiz-adv-x="1085" d="M-4 1083v338h1024v-338h-1024zM35 983h53l479 -932l418 932h53l-522 -1163q-37 -82 -73.5 -137.5t-76.5 -89t-83 -49t-93 -15.5q-49 0 -100 12v45q49 -12 96 -12q92 0 161 63.5t128 204.5l68 154zM113 1161h63q47 0 72 24.5t25 65.5q0 37 -24.5 63.5t-72.5 26.5h-63v-180 zM144 1191v117h32q31 0 47.5 -16.5t16.5 -40.5q0 -59 -64 -60h-32zM324 1161h127v30h-94v44h94v32h-94v41h94v33h-127v-180zM502 1161h35v135l61 -80l64 82v-137h33v180h-43l-54 -74l-53 74h-43v-180zM746 1255q0 -39 22.5 -67.5t69.5 -28.5q49 0 72.5 28.5t23.5 67.5 q0 45 -27.5 70.5t-68.5 25.5q-39 0 -65.5 -27.5t-26.5 -68.5zM776 1255q0 25 15.5 45.5t46.5 20.5q33 0 48 -20.5t15 -45.5q0 -27 -14 -46.5t-49 -19.5q-31 0 -46.5 21.5t-15.5 44.5z" />
<glyph unicode="&#x152;" d="M145 0v1434h476v-1434h-476zM252 1176q0 -53 37 -90t96 -37q47 0 88 30.5t41 96.5t-42 95t-89 32q-47 0 -89 -30.5t-42 -96.5zM258 158h248v98q0 66 -39 95.5t-86 27.5q-47 0 -85 -28.5t-38 -94.5v-98zM258 451h248v184h-43v-137h-57v133h-44v-133h-57v137h-47v-184z M258 715h248v45h-178l108 80v8l-108 84h178v45h-248v-53l109 -80l-109 -76v-53zM297 1176q0 45 28.5 63t59.5 18q31 -4 57.5 -20t26.5 -61t-26.5 -63.5t-57.5 -18.5q-37 -2 -63.5 19.5t-24.5 62.5zM303 203v53q-2 41 23.5 57.5t54.5 20.5q29 0 55.5 -17.5t26.5 -60.5v-53 h-160z" />
<glyph unicode="&#x153;" d="M145 0v1434h476v-1434h-476zM252 1176q0 -53 37 -90t96 -37q47 0 88 30.5t41 96.5t-42 95t-89 32q-47 0 -89 -30.5t-42 -96.5zM258 158h248v98q0 66 -39 95.5t-86 27.5q-47 0 -85 -28.5t-38 -94.5v-98zM258 451h248v184h-43v-137h-57v133h-44v-133h-57v137h-47v-184z M258 715h248v45h-178l108 80v8l-108 84h178v45h-248v-53l109 -80l-109 -76v-53zM297 1176q0 45 28.5 63t59.5 18q31 -4 57.5 -20t26.5 -61t-26.5 -63.5t-57.5 -18.5q-37 -2 -63.5 19.5t-24.5 62.5zM303 203v53q-2 41 23.5 57.5t54.5 20.5q29 0 55.5 -17.5t26.5 -60.5v-53 h-160z" />
<glyph unicode="&#x178;" horiz-adv-x="1280" d="M49 1434h57l533 -803l532 803h58l-563 -852v-582h-52v582zM108 1534v338h1024v-338h-1024zM225 1612h63q47 0 72 24.5t25 65.5q0 37 -24.5 63.5t-72.5 26.5h-63v-180zM256 1642v117h32q31 0 47.5 -16.5t16.5 -40.5q0 -59 -64 -60h-32zM436 1612h127v30h-94v44h94v32h-94 v41h94v33h-127v-180zM614 1612h35v135l61 -80l64 82v-137h33v180h-43l-54 -74l-53 74h-43v-180zM858 1706q0 -39 22.5 -67.5t69.5 -28.5q49 0 72.5 28.5t23.5 67.5q0 45 -27.5 70.5t-68.5 25.5q-39 0 -65.5 -27.5t-26.5 -68.5zM888 1706q0 25 15.5 45.5t46.5 20.5 q33 0 48 -20.5t15 -45.5q0 -27 -14 -46.5t-49 -19.5q-31 0 -46.5 21.5t-15.5 44.5z" />
<glyph unicode="&#x2c6;" horiz-adv-x="528" d="M-283 1534v338h1024v-338h-1024zM-166 1612h64q47 0 71.5 24.5t24.5 65.5q0 37 -24.5 63.5t-71.5 26.5h-64v-180zM-135 1642v117h33q31 0 47 -16.5t16 -40.5q0 -59 -63 -60h-33zM45 1612h127v30h-94v44h94v32h-94v41h94v33h-127v-180zM223 1612h35v135l61 -80l64 82v-137 h33v180h-43l-54 -74l-53 74h-43v-180zM467 1706q0 -39 22.5 -67.5t69.5 -28.5q49 0 72.5 28.5t23.5 67.5q0 45 -27.5 70.5t-68.5 25.5q-39 0 -65.5 -27.5t-26.5 -68.5zM498 1706q0 25 15 45.5t46 20.5q33 0 48.5 -20.5t15.5 -45.5q0 -27 -14.5 -46.5t-49.5 -19.5 q-31 0 -46 21.5t-15 44.5z" />
<glyph unicode="&#x2dc;" horiz-adv-x="630" d="M-236 1534v338h1024v-338h-1024zM-119 1612h64q47 0 71.5 24.5t24.5 65.5q0 37 -24.5 63.5t-71.5 26.5h-64v-180zM-88 1642v117h33q31 0 47 -16.5t16 -40.5q0 -59 -63 -60h-33zM92 1612h127v30h-94v44h94v32h-94v41h94v33h-127v-180zM270 1612h35v135l62 -80l63 82v-137 h33v180h-43l-53 -74l-54 74h-43v-180zM514 1706q0 -39 22.5 -67.5t69.5 -28.5q49 0 72.5 28.5t23.5 67.5q0 45 -27.5 70.5t-68.5 25.5q-39 0 -65.5 -27.5t-26.5 -68.5zM545 1706q0 25 15 45.5t46 20.5q33 0 48.5 -20.5t15.5 -45.5q0 -27 -14.5 -46.5t-49.5 -19.5 q-31 0 -46 21.5t-15 44.5z" />
<glyph unicode="&#x2000;" horiz-adv-x="936" />
<glyph unicode="&#x2001;" horiz-adv-x="1872" />
<glyph unicode="&#x2002;" horiz-adv-x="936" />
<glyph unicode="&#x2003;" horiz-adv-x="1872" />
<glyph unicode="&#x2004;" horiz-adv-x="624" />
<glyph unicode="&#x2005;" horiz-adv-x="468" />
<glyph unicode="&#x2006;" horiz-adv-x="312" />
<glyph unicode="&#x2007;" horiz-adv-x="312" />
<glyph unicode="&#x2008;" horiz-adv-x="234" />
<glyph unicode="&#x2009;" horiz-adv-x="374" />
<glyph unicode="&#x200a;" horiz-adv-x="104" />
<glyph unicode="&#x2010;" horiz-adv-x="993" d="M145 473v47h703v-47h-703z" />
<glyph unicode="&#x2011;" horiz-adv-x="993" d="M145 473v47h703v-47h-703z" />
<glyph unicode="&#x2012;" horiz-adv-x="993" d="M145 473v47h703v-47h-703z" />
<glyph unicode="&#x2013;" d="M145 0v1434h476v-1434h-476zM252 1176q0 -53 37 -90t96 -37q47 0 88 30.5t41 96.5t-42 95t-89 32q-47 0 -89 -30.5t-42 -96.5zM258 158h248v98q0 66 -39 95.5t-86 27.5q-47 0 -85 -28.5t-38 -94.5v-98zM258 451h248v184h-43v-137h-57v133h-44v-133h-57v137h-47v-184z M258 715h248v45h-178l108 80v8l-108 84h178v45h-248v-53l109 -80l-109 -76v-53zM297 1176q0 45 28.5 63t59.5 18q31 -4 57.5 -20t26.5 -61t-26.5 -63.5t-57.5 -18.5q-37 -2 -63.5 19.5t-24.5 62.5zM303 203v53q-2 41 23.5 57.5t54.5 20.5q29 0 55.5 -17.5t26.5 -60.5v-53 h-160z" />
<glyph unicode="&#x2014;" d="M145 0v1434h476v-1434h-476zM252 1176q0 -53 37 -90t96 -37q47 0 88 30.5t41 96.5t-42 95t-89 32q-47 0 -89 -30.5t-42 -96.5zM258 158h248v98q0 66 -39 95.5t-86 27.5q-47 0 -85 -28.5t-38 -94.5v-98zM258 451h248v184h-43v-137h-57v133h-44v-133h-57v137h-47v-184z M258 715h248v45h-178l108 80v8l-108 84h178v45h-248v-53l109 -80l-109 -76v-53zM297 1176q0 45 28.5 63t59.5 18q31 -4 57.5 -20t26.5 -61t-26.5 -63.5t-57.5 -18.5q-37 -2 -63.5 19.5t-24.5 62.5zM303 203v53q-2 41 23.5 57.5t54.5 20.5q29 0 55.5 -17.5t26.5 -60.5v-53 h-160z" />
<glyph unicode="&#x2018;" d="M145 0v1434h476v-1434h-476zM252 1176q0 -53 37 -90t96 -37q47 0 88 30.5t41 96.5t-42 95t-89 32q-47 0 -89 -30.5t-42 -96.5zM258 158h248v98q0 66 -39 95.5t-86 27.5q-47 0 -85 -28.5t-38 -94.5v-98zM258 451h248v184h-43v-137h-57v133h-44v-133h-57v137h-47v-184z M258 715h248v45h-178l108 80v8l-108 84h178v45h-248v-53l109 -80l-109 -76v-53zM297 1176q0 45 28.5 63t59.5 18q31 -4 57.5 -20t26.5 -61t-26.5 -63.5t-57.5 -18.5q-37 -2 -63.5 19.5t-24.5 62.5zM303 203v53q-2 41 23.5 57.5t54.5 20.5q29 0 55.5 -17.5t26.5 -60.5v-53 h-160z" />
<glyph unicode="&#x2019;" d="M145 0v1434h476v-1434h-476zM252 1176q0 -53 37 -90t96 -37q47 0 88 30.5t41 96.5t-42 95t-89 32q-47 0 -89 -30.5t-42 -96.5zM258 158h248v98q0 66 -39 95.5t-86 27.5q-47 0 -85 -28.5t-38 -94.5v-98zM258 451h248v184h-43v-137h-57v133h-44v-133h-57v137h-47v-184z M258 715h248v45h-178l108 80v8l-108 84h178v45h-248v-53l109 -80l-109 -76v-53zM297 1176q0 45 28.5 63t59.5 18q31 -4 57.5 -20t26.5 -61t-26.5 -63.5t-57.5 -18.5q-37 -2 -63.5 19.5t-24.5 62.5zM303 203v53q-2 41 23.5 57.5t54.5 20.5q29 0 55.5 -17.5t26.5 -60.5v-53 h-160z" />
<glyph unicode="&#x201a;" d="M145 0v1434h476v-1434h-476zM252 1176q0 -53 37 -90t96 -37q47 0 88 30.5t41 96.5t-42 95t-89 32q-47 0 -89 -30.5t-42 -96.5zM258 158h248v98q0 66 -39 95.5t-86 27.5q-47 0 -85 -28.5t-38 -94.5v-98zM258 451h248v184h-43v-137h-57v133h-44v-133h-57v137h-47v-184z M258 715h248v45h-178l108 80v8l-108 84h178v45h-248v-53l109 -80l-109 -76v-53zM297 1176q0 45 28.5 63t59.5 18q31 -4 57.5 -20t26.5 -61t-26.5 -63.5t-57.5 -18.5q-37 -2 -63.5 19.5t-24.5 62.5zM303 203v53q-2 41 23.5 57.5t54.5 20.5q29 0 55.5 -17.5t26.5 -60.5v-53 h-160z" />
<glyph unicode="&#x201c;" d="M145 0v1434h476v-1434h-476zM252 1176q0 -53 37 -90t96 -37q47 0 88 30.5t41 96.5t-42 95t-89 32q-47 0 -89 -30.5t-42 -96.5zM258 158h248v98q0 66 -39 95.5t-86 27.5q-47 0 -85 -28.5t-38 -94.5v-98zM258 451h248v184h-43v-137h-57v133h-44v-133h-57v137h-47v-184z M258 715h248v45h-178l108 80v8l-108 84h178v45h-248v-53l109 -80l-109 -76v-53zM297 1176q0 45 28.5 63t59.5 18q31 -4 57.5 -20t26.5 -61t-26.5 -63.5t-57.5 -18.5q-37 -2 -63.5 19.5t-24.5 62.5zM303 203v53q-2 41 23.5 57.5t54.5 20.5q29 0 55.5 -17.5t26.5 -60.5v-53 h-160z" />
<glyph unicode="&#x201d;" d="M145 0v1434h476v-1434h-476zM252 1176q0 -53 37 -90t96 -37q47 0 88 30.5t41 96.5t-42 95t-89 32q-47 0 -89 -30.5t-42 -96.5zM258 158h248v98q0 66 -39 95.5t-86 27.5q-47 0 -85 -28.5t-38 -94.5v-98zM258 451h248v184h-43v-137h-57v133h-44v-133h-57v137h-47v-184z M258 715h248v45h-178l108 80v8l-108 84h178v45h-248v-53l109 -80l-109 -76v-53zM297 1176q0 45 28.5 63t59.5 18q31 -4 57.5 -20t26.5 -61t-26.5 -63.5t-57.5 -18.5q-37 -2 -63.5 19.5t-24.5 62.5zM303 203v53q-2 41 23.5 57.5t54.5 20.5q29 0 55.5 -17.5t26.5 -60.5v-53 h-160z" />
<glyph unicode="&#x201e;" d="M145 0v1434h476v-1434h-476zM252 1176q0 -53 37 -90t96 -37q47 0 88 30.5t41 96.5t-42 95t-89 32q-47 0 -89 -30.5t-42 -96.5zM258 158h248v98q0 66 -39 95.5t-86 27.5q-47 0 -85 -28.5t-38 -94.5v-98zM258 451h248v184h-43v-137h-57v133h-44v-133h-57v137h-47v-184z M258 715h248v45h-178l108 80v8l-108 84h178v45h-248v-53l109 -80l-109 -76v-53zM297 1176q0 45 28.5 63t59.5 18q31 -4 57.5 -20t26.5 -61t-26.5 -63.5t-57.5 -18.5q-37 -2 -63.5 19.5t-24.5 62.5zM303 203v53q-2 41 23.5 57.5t54.5 20.5q29 0 55.5 -17.5t26.5 -60.5v-53 h-160z" />
<glyph unicode="&#x2022;" d="M145 0v1434h476v-1434h-476zM252 1176q0 -53 37 -90t96 -37q47 0 88 30.5t41 96.5t-42 95t-89 32q-47 0 -89 -30.5t-42 -96.5zM258 158h248v98q0 66 -39 95.5t-86 27.5q-47 0 -85 -28.5t-38 -94.5v-98zM258 451h248v184h-43v-137h-57v133h-44v-133h-57v137h-47v-184z M258 715h248v45h-178l108 80v8l-108 84h178v45h-248v-53l109 -80l-109 -76v-53zM297 1176q0 45 28.5 63t59.5 18q31 -4 57.5 -20t26.5 -61t-26.5 -63.5t-57.5 -18.5q-37 -2 -63.5 19.5t-24.5 62.5zM303 203v53q-2 41 23.5 57.5t54.5 20.5q29 0 55.5 -17.5t26.5 -60.5v-53 h-160z" />
<glyph unicode="&#x2026;" d="M145 0v1434h476v-1434h-476zM252 1176q0 -53 37 -90t96 -37q47 0 88 30.5t41 96.5t-42 95t-89 32q-47 0 -89 -30.5t-42 -96.5zM258 158h248v98q0 66 -39 95.5t-86 27.5q-47 0 -85 -28.5t-38 -94.5v-98zM258 451h248v184h-43v-137h-57v133h-44v-133h-57v137h-47v-184z M258 715h248v45h-178l108 80v8l-108 84h178v45h-248v-53l109 -80l-109 -76v-53zM297 1176q0 45 28.5 63t59.5 18q31 -4 57.5 -20t26.5 -61t-26.5 -63.5t-57.5 -18.5q-37 -2 -63.5 19.5t-24.5 62.5zM303 203v53q-2 41 23.5 57.5t54.5 20.5q29 0 55.5 -17.5t26.5 -60.5v-53 h-160z" />
<glyph unicode="&#x202f;" horiz-adv-x="374" />
<glyph unicode="&#x2039;" d="M145 0v1434h476v-1434h-476zM252 1176q0 -53 37 -90t96 -37q47 0 88 30.5t41 96.5t-42 95t-89 32q-47 0 -89 -30.5t-42 -96.5zM258 158h248v98q0 66 -39 95.5t-86 27.5q-47 0 -85 -28.5t-38 -94.5v-98zM258 451h248v184h-43v-137h-57v133h-44v-133h-57v137h-47v-184z M258 715h248v45h-178l108 80v8l-108 84h178v45h-248v-53l109 -80l-109 -76v-53zM297 1176q0 45 28.5 63t59.5 18q31 -4 57.5 -20t26.5 -61t-26.5 -63.5t-57.5 -18.5q-37 -2 -63.5 19.5t-24.5 62.5zM303 203v53q-2 41 23.5 57.5t54.5 20.5q29 0 55.5 -17.5t26.5 -60.5v-53 h-160z" />
<glyph unicode="&#x203a;" d="M145 0v1434h476v-1434h-476zM252 1176q0 -53 37 -90t96 -37q47 0 88 30.5t41 96.5t-42 95t-89 32q-47 0 -89 -30.5t-42 -96.5zM258 158h248v98q0 66 -39 95.5t-86 27.5q-47 0 -85 -28.5t-38 -94.5v-98zM258 451h248v184h-43v-137h-57v133h-44v-133h-57v137h-47v-184z M258 715h248v45h-178l108 80v8l-108 84h178v45h-248v-53l109 -80l-109 -76v-53zM297 1176q0 45 28.5 63t59.5 18q31 -4 57.5 -20t26.5 -61t-26.5 -63.5t-57.5 -18.5q-37 -2 -63.5 19.5t-24.5 62.5zM303 203v53q-2 41 23.5 57.5t54.5 20.5q29 0 55.5 -17.5t26.5 -60.5v-53 h-160z" />
<glyph unicode="&#x205f;" horiz-adv-x="468" />
<glyph unicode="&#x20ac;" d="M145 0v1434h476v-1434h-476zM252 1176q0 -53 37 -90t96 -37q47 0 88 30.5t41 96.5t-42 95t-89 32q-47 0 -89 -30.5t-42 -96.5zM258 158h248v98q0 66 -39 95.5t-86 27.5q-47 0 -85 -28.5t-38 -94.5v-98zM258 451h248v184h-43v-137h-57v133h-44v-133h-57v137h-47v-184z M258 715h248v45h-178l108 80v8l-108 84h178v45h-248v-53l109 -80l-109 -76v-53zM297 1176q0 45 28.5 63t59.5 18q31 -4 57.5 -20t26.5 -61t-26.5 -63.5t-57.5 -18.5q-37 -2 -63.5 19.5t-24.5 62.5zM303 203v53q-2 41 23.5 57.5t54.5 20.5q29 0 55.5 -17.5t26.5 -60.5v-53 h-160z" />
<glyph unicode="&#x2122;" d="M145 0v1434h476v-1434h-476zM252 1176q0 -53 37 -90t96 -37q47 0 88 30.5t41 96.5t-42 95t-89 32q-47 0 -89 -30.5t-42 -96.5zM258 158h248v98q0 66 -39 95.5t-86 27.5q-47 0 -85 -28.5t-38 -94.5v-98zM258 451h248v184h-43v-137h-57v133h-44v-133h-57v137h-47v-184z M258 715h248v45h-178l108 80v8l-108 84h178v45h-248v-53l109 -80l-109 -76v-53zM297 1176q0 45 28.5 63t59.5 18q31 -4 57.5 -20t26.5 -61t-26.5 -63.5t-57.5 -18.5q-37 -2 -63.5 19.5t-24.5 62.5zM303 203v53q-2 41 23.5 57.5t54.5 20.5q29 0 55.5 -17.5t26.5 -60.5v-53 h-160z" />
<glyph unicode="&#x25fc;" horiz-adv-x="983" d="M0 0v983h983v-983h-983z" />
<glyph unicode="&#xfb01;" horiz-adv-x="1073" d="M49 936v47h168v156q0 80 26.5 139t72.5 98t106.5 58.5t128.5 19.5q170 0 321 -92v-51q-68 43 -150.5 70.5t-168.5 27.5q-129 0 -208 -70.5t-79 -199.5v-156h629v-983h-49v936h-580v-936h-49v936h-168z" />
<glyph unicode="&#xfb02;" horiz-adv-x="1093" d="M49 936v47h168v156q0 80 26.5 139t72.5 98t106.5 58.5t128.5 19.5q88 0 167 -20.5t148 -59.5v51l49 17v-1442h-49v1327q-66 37 -143.5 59.5t-169.5 22.5q-129 0 -208 -70.5t-79 -199.5v-156h400v-47h-400v-936h-49v936h-168z" />
<glyph unicode="&#xfb03;" horiz-adv-x="1708" d="M49 936v47h168v119q0 80 26.5 139t75 98t112 58.5t136.5 19.5q98 0 172 -26.5t152 -79.5q43 74 122 110.5t173 36.5q170 0 321 -92v-51q-68 43 -150.5 70.5t-168.5 27.5q-129 0 -208 -68.5t-79 -189.5v-172h629v-983h-49v936h-580v-936h-49v936h-586v-936h-49v936h-168z M266 983h586v172q0 59 20 117q-66 47 -136 73.5t-167 26.5q-141 0 -222 -70.5t-81 -199.5v-119z" />
<glyph unicode="&#xfb04;" horiz-adv-x="1728" d="M49 936v47h168v119q0 80 26.5 139t75 98t112 58.5t136.5 19.5q98 0 174 -27.5t154 -80.5q41 78 120 113.5t171 35.5q88 0 167 -20.5t148 -59.5v52l49 16v-1446h-49v1331q-66 37 -143.5 59.5t-169.5 22.5q-129 0 -208 -70.5t-79 -203.5v-156h399v-47h-399v-936h-49v936 h-586v-936h-49v936h-168zM266 983h586v156q0 76 25 131q-70 47 -139.5 74.5t-168.5 27.5q-141 0 -222 -70.5t-81 -199.5v-119z" />
</font>
</defs>
</svg>
